<svg width="337" height="337" viewBox="0 0 337 337" fill="none" xmlns="http://www.w3.org/2000/svg">
<circle cx="168.5" cy="168.5" r="168.5" fill="white"/>
<path fill-rule="evenodd" clip-rule="evenodd" d="M168.5 310C247.753 310 312 245.753 312 166.5C312 87.2471 247.753 23 168.5 23C89.2471 23 25 87.2471 25 166.5C25 211.757 45.9509 252.121 78.683 278.422C82.5141 275.7 87.9592 274 94 274C105.598 274 115 280.268 115 288C115 291.611 112.949 294.903 109.582 297.386C127.557 305.49 147.502 310 168.5 310Z" fill="white"/>
<ellipse cx="143" cy="304" rx="21" ry="11" fill="white"/>
<path fill-rule="evenodd" clip-rule="evenodd" d="M268.262 249.301C286.233 227.752 297 200.295 297 170.394C297 101.141 239.245 45 168 45C96.7553 45 39 101.141 39 170.394C39 199.086 48.9144 225.529 65.5948 246.659C65.471 245.935 65.5 245.5 65.5 245.5C71.0003 243.5 98.1102 241.131 117 248C128 252 142 266 144.5 274C144.728 274.006 144.971 274.012 145.227 274.018L145.637 274.028C148.008 274.087 151.389 274.171 155.435 274.239V251H170V274.352C175.937 274.339 182.289 274.244 188.5 274C208.331 273.222 227.495 258.414 237.671 250.551C240.58 248.303 242.754 246.623 244 246C254 241 269.5 239.5 268.5 246C268.425 246.484 268.157 247.092 267.716 247.806C267.976 248.282 268.156 248.781 268.262 249.301Z" fill="#60DDF0"/>
<path fill-rule="evenodd" clip-rule="evenodd" d="M77.0001 257.5L103 257.5C119.5 257.5 137 270 137 291C141.736 291.398 148.019 291.804 155 292.08V274.232C151.147 274.165 147.923 274.085 145.637 274.028C145.227 274.018 144.848 274.008 144.5 274C142 266 128 252 117 248C98.1102 241.131 71.0002 243.5 65.5 245.5C65.5 245.5 65 253 77.0001 257.5ZM177 274.297V292.384C190.362 292.178 203.274 291.138 211 288.5C231.5 281.5 267.5 252.5 268.5 246C269.5 239.5 254 241 244 246C242.754 246.623 240.58 248.303 237.671 250.551C227.495 258.414 208.331 273.222 188.5 274C184.677 274.15 180.8 274.244 177 274.297Z" fill="#3FB9D6"/>
<path d="M173.524 251V297.822C173.524 302.857 171.513 310.11 167.024 314C162.388 318.018 156.335 321.265 149.024 321.5C131.148 322.074 121.459 308.393 122 296.312H125.185H128.524C128.524 305.374 137.024 310.5 147.524 311C164.5 310.5 165.168 301 165.168 284.732V251H173.524Z" fill="#ADD1DF"/>
<path fill-rule="evenodd" clip-rule="evenodd" d="M150 75.5V102H185V75.5V75H185.007C185.272 65.5662 193.002 58 202.5 58C211.998 58 219.728 65.5662 219.993 75H220V75.5V102H228.5H229V102.006C238.986 102.257 247 109.993 247 119.5C247 126.266 242.941 132.135 237 135.048V165.5V169H236.889C235.399 192.501 218.998 212.477 195.922 221.639C198.461 224.541 200 228.341 200 232.5C200 241.445 192.881 248.728 184 248.993V298.5V299H183.982C183.191 317.216 166.263 329 148.875 329C140.002 329 130.575 326.304 123.22 320.806C115.723 315.203 110.375 306.636 110.375 295.5C110.375 285.885 107.629 282.729 106.005 281.565C103.994 280.124 101.474 280 98.875 280H84.875C74.375 280 74.375 267 84.875 267H98.875L99.0881 267C101.628 266.997 107.661 266.988 112.995 270.811C118.871 275.022 122.375 280 122.375 295.5C122.375 302.365 125.526 307.548 130.405 311.195C135.425 314.947 141.873 316.5 148.5 316.5C162.266 316.008 172.648 308.749 172.991 299H172.966C172.989 298.667 173 298.334 173 298V251H159V291V298V298.5C159 302.5 156.34 307 147.744 307C139.149 307 137 300.167 137 296.5H145.698C146.798 296.5 147.529 296.232 148 295.877V248.933C139.59 248.175 133 241.107 133 232.5C133 228.05 134.761 224.012 137.625 221.044C115.316 211.632 99.5692 192.005 98.1107 169H98V165.5V134.52C92.6085 131.461 89 125.879 89 119.5C89 109.835 97.2827 102 107.5 102C107.667 102 107.834 102.002 108 102.006V102H115V75.5V75H115.007C115.272 65.5662 123.002 58 132.5 58C141.998 58 149.728 65.5662 149.993 75H150V75.5Z" fill="#063655"/>
<path d="M150 102H149.5C149.5 102.276 149.724 102.5 150 102.5V102ZM185 102V102.5C185.276 102.5 185.5 102.276 185.5 102H185ZM185 75V74.5C184.724 74.5 184.5 74.7239 184.5 75H185ZM185.007 75V75.5C185.278 75.5 185.499 75.2846 185.507 75.014L185.007 75ZM219.993 75L219.493 75.014C219.501 75.2846 219.722 75.5 219.993 75.5V75ZM220 75H220.5C220.5 74.7239 220.276 74.5 220 74.5V75ZM220 102H219.5C219.5 102.276 219.724 102.5 220 102.5V102ZM229 102H229.5C229.5 101.724 229.276 101.5 229 101.5V102ZM229 102.006H228.5C228.5 102.278 228.716 102.499 228.987 102.506L229 102.006ZM237 135.048L236.78 134.599C236.609 134.683 236.5 134.857 236.5 135.048H237ZM237 169V169.5C237.276 169.5 237.5 169.276 237.5 169H237ZM236.889 169V168.5C236.625 168.5 236.407 168.705 236.39 168.968L236.889 169ZM195.922 221.639L195.737 221.174C195.586 221.234 195.474 221.364 195.436 221.522C195.398 221.68 195.438 221.846 195.545 221.968L195.922 221.639ZM184 248.993L183.985 248.493C183.715 248.501 183.5 248.722 183.5 248.993H184ZM184 299V299.5C184.276 299.5 184.5 299.276 184.5 299H184ZM183.982 299V298.5C183.715 298.5 183.494 298.711 183.483 298.978L183.982 299ZM123.22 320.806L123.52 320.406L123.22 320.806ZM106.005 281.565L105.714 281.971H105.714L106.005 281.565ZM98.875 267V267.5H98.8754L98.875 267ZM99.0881 267L99.0886 267.5H99.0888L99.0881 267ZM112.995 270.811L112.704 271.217L112.995 270.811ZM130.405 311.195L130.105 311.595L130.405 311.195ZM148.5 316.5V317C148.506 317 148.512 317 148.518 317L148.5 316.5ZM172.991 299L173.491 299.018C173.496 298.882 173.445 298.75 173.351 298.653C173.257 298.555 173.127 298.5 172.991 298.5V299ZM172.966 299L172.467 298.967C172.458 299.105 172.506 299.24 172.601 299.342C172.696 299.443 172.828 299.5 172.966 299.5V299ZM173 251H173.5C173.5 250.724 173.276 250.5 173 250.5V251ZM159 251V250.5C158.724 250.5 158.5 250.724 158.5 251H159ZM137 296.5V296C136.724 296 136.5 296.224 136.5 296.5H137ZM148 295.877L148.301 296.276C148.426 296.181 148.5 296.034 148.5 295.877H148ZM148 248.933H148.5C148.5 248.674 148.303 248.458 148.045 248.435L148 248.933ZM137.625 221.044L137.985 221.391C138.099 221.273 138.148 221.105 138.115 220.944C138.082 220.782 137.971 220.648 137.819 220.583L137.625 221.044ZM98.1107 169L98.6097 168.968C98.593 168.705 98.3745 168.5 98.1107 168.5V169ZM98 169H97.5C97.5 169.276 97.7239 169.5 98 169.5V169ZM98 134.52H98.5C98.5 134.34 98.4032 134.173 98.2467 134.085L98 134.52ZM108 102.006L107.987 102.506C108.122 102.509 108.253 102.458 108.349 102.364C108.446 102.27 108.5 102.141 108.5 102.006H108ZM108 102V101.5C107.724 101.5 107.5 101.724 107.5 102H108ZM115 102V102.5C115.276 102.5 115.5 102.276 115.5 102H115ZM115 75V74.5C114.724 74.5 114.5 74.7239 114.5 75H115ZM115.007 75V75.5C115.278 75.5 115.499 75.2846 115.507 75.014L115.007 75ZM149.993 75L149.493 75.014C149.501 75.2846 149.722 75.5 149.993 75.5V75ZM150 75H150.5C150.5 74.7239 150.276 74.5 150 74.5V75ZM150.5 102V75.5H149.5V102H150.5ZM185 101.5H150V102.5H185V101.5ZM184.5 75.5V102H185.5V75.5H184.5ZM184.5 75V75.5H185.5V75H184.5ZM185.007 74.5H185V75.5H185.007V74.5ZM202.5 57.5C192.731 57.5 184.779 65.2824 184.507 74.986L185.507 75.014C185.764 65.8501 193.274 58.5 202.5 58.5V57.5ZM220.493 74.986C220.221 65.2824 212.269 57.5 202.5 57.5V58.5C211.726 58.5 219.236 65.8501 219.493 75.014L220.493 74.986ZM220 74.5H219.993V75.5H220V74.5ZM220.5 75.5V75H219.5V75.5H220.5ZM220.5 102V75.5H219.5V102H220.5ZM228.5 101.5H220V102.5H228.5V101.5ZM229 101.5H228.5V102.5H229V101.5ZM229.5 102.006V102H228.5V102.006H229.5ZM247.5 119.5C247.5 109.696 239.244 101.763 229.013 101.506L228.987 102.506C238.729 102.751 246.5 110.29 246.5 119.5H247.5ZM237.22 135.497C243.315 132.509 247.5 126.475 247.5 119.5H246.5C246.5 126.057 242.566 131.762 236.78 134.599L237.22 135.497ZM237.5 165.5V135.048H236.5V165.5H237.5ZM237.5 169V165.5H236.5V169H237.5ZM236.889 169.5H237V168.5H236.889V169.5ZM196.106 222.104C219.331 212.883 235.884 192.757 237.388 169.032L236.39 168.968C234.915 192.245 218.664 212.071 195.737 221.174L196.106 222.104ZM200.5 232.5C200.5 228.215 198.914 224.299 196.298 221.31L195.545 221.968C198.008 224.783 199.5 228.467 199.5 232.5H200.5ZM184.015 249.492C193.166 249.22 200.5 241.717 200.5 232.5H199.5C199.5 241.174 192.597 248.236 183.985 248.493L184.015 249.492ZM184.5 298.5V248.993H183.5V298.5H184.5ZM184.5 299V298.5H183.5V299H184.5ZM183.982 299.5H184V298.5H183.982V299.5ZM148.875 329.5C166.446 329.5 183.676 317.582 184.482 299.022L183.483 298.978C182.707 316.85 166.079 328.5 148.875 328.5V329.5ZM122.921 321.207C130.373 326.777 139.909 329.5 148.875 329.5V328.5C140.096 328.5 130.777 325.83 123.52 320.406L122.921 321.207ZM109.875 295.5C109.875 306.814 115.315 315.522 122.921 321.207L123.52 320.406C116.132 314.883 110.875 306.458 110.875 295.5H109.875ZM105.714 281.971C107.162 283.009 109.875 285.981 109.875 295.5H110.875C110.875 285.788 108.096 282.448 106.296 281.158L105.714 281.971ZM98.875 280.5C101.486 280.5 103.849 280.635 105.714 281.971L106.296 281.158C104.139 279.613 101.462 279.5 98.875 279.5V280.5ZM84.875 280.5H98.875V279.5H84.875V280.5ZM84.875 266.5C82.1443 266.5 80.0475 267.348 78.6285 268.665C77.2118 269.981 76.5 271.74 76.5 273.5C76.5 275.261 77.2118 277.02 78.6285 278.336C80.0475 279.653 82.1443 280.5 84.875 280.5V279.5C82.3557 279.5 80.515 278.723 79.309 277.603C78.1007 276.481 77.5 274.99 77.5 273.5C77.5 272.011 78.1007 270.52 79.309 269.398C80.515 268.278 82.3557 267.5 84.875 267.5V266.5ZM98.875 266.5H84.875V267.5H98.875V266.5ZM99.0876 266.5L98.8745 266.5L98.8754 267.5L99.0886 267.5L99.0876 266.5ZM113.286 270.405C107.811 266.481 101.631 266.497 99.0874 266.5L99.0888 267.5C101.626 267.497 107.511 267.496 112.704 271.217L113.286 270.405ZM122.875 295.5C122.875 287.721 121.997 282.523 120.347 278.723C118.689 274.905 116.269 272.543 113.286 270.405L112.704 271.217C115.597 273.291 117.867 275.523 119.43 279.122C121.001 282.739 121.875 287.78 121.875 295.5H122.875ZM130.704 310.794C125.935 307.23 122.875 302.188 122.875 295.5H121.875C121.875 302.543 125.118 307.867 130.105 311.595L130.704 310.794ZM148.5 316C141.944 316 135.613 314.463 130.704 310.794L130.105 311.595C135.238 315.431 141.801 317 148.5 317V316ZM172.492 298.982C172.326 303.668 169.751 307.788 165.489 310.814C161.224 313.842 155.287 315.757 148.482 316L148.518 317C155.479 316.751 161.615 314.791 166.068 311.629C170.525 308.465 173.312 304.081 173.491 299.018L172.492 298.982ZM172.966 299.5H172.991V298.5H172.966V299.5ZM172.5 298C172.5 298.322 172.489 298.645 172.467 298.967L173.465 299.033C173.488 298.69 173.5 298.345 173.5 298H172.5ZM172.5 251V298H173.5V251H172.5ZM159 251.5H173V250.5H159V251.5ZM159.5 291V251H158.5V291H159.5ZM158.5 291V298H159.5V291H158.5ZM158.5 298V298.5H159.5V298H158.5ZM158.5 298.5C158.5 300.39 157.873 302.372 156.254 303.885C154.634 305.398 151.957 306.5 147.744 306.5V307.5C152.126 307.5 155.078 306.352 156.937 304.615C158.797 302.878 159.5 300.61 159.5 298.5H158.5ZM147.744 306.5C143.6 306.5 141.065 304.863 139.55 302.827C138.017 300.766 137.5 298.253 137.5 296.5H136.5C136.5 298.413 137.057 301.151 138.748 303.423C140.456 305.721 143.293 307.5 147.744 307.5V306.5ZM137 297H145.698V296H137V297ZM145.698 297C146.879 297 147.723 296.712 148.301 296.276L147.699 295.478C147.334 295.753 146.717 296 145.698 296V297ZM147.5 248.933V295.877H148.5V248.933H147.5ZM132.5 232.5C132.5 241.368 139.29 248.65 147.955 249.431L148.045 248.435C139.89 247.7 133.5 240.846 133.5 232.5H132.5ZM137.265 220.697C134.315 223.754 132.5 227.916 132.5 232.5H133.5C133.5 228.185 135.208 224.27 137.985 221.391L137.265 220.697ZM97.6117 169.032C99.0841 192.255 114.976 212.031 137.431 221.505L137.819 220.583C115.656 211.232 100.054 191.754 98.6097 168.968L97.6117 169.032ZM98 169.5H98.1107V168.5H98V169.5ZM97.5 165.5V169H98.5V165.5H97.5ZM97.5 134.52V165.5H98.5V134.52H97.5ZM88.5 119.5C88.5 126.076 92.2201 131.816 97.7533 134.954L98.2467 134.085C92.9969 131.107 89.5 125.683 89.5 119.5H88.5ZM107.5 101.5C97.0331 101.5 88.5 109.533 88.5 119.5H89.5C89.5 110.137 97.5323 102.5 107.5 102.5V101.5ZM108.013 101.506C107.842 101.502 107.671 101.5 107.5 101.5V102.5C107.663 102.5 107.826 102.502 107.987 102.506L108.013 101.506ZM107.5 102V102.006H108.5V102H107.5ZM115 101.5H108V102.5H115V101.5ZM114.5 75.5V102H115.5V75.5H114.5ZM114.5 75V75.5H115.5V75H114.5ZM115.007 74.5H115V75.5H115.007V74.5ZM132.5 57.5C122.731 57.5 114.779 65.2824 114.507 74.986L115.507 75.014C115.764 65.8501 123.274 58.5 132.5 58.5V57.5ZM150.493 74.986C150.221 65.2824 142.269 57.5 132.5 57.5V58.5C141.726 58.5 149.236 65.8501 149.493 75.014L150.493 74.986ZM150 74.5H149.993V75.5H150V74.5ZM150.5 75.5V75H149.5V75.5H150.5Z" fill="#00003F"/>
<path fill-rule="evenodd" clip-rule="evenodd" d="M137 76C137 72.6863 134.314 70 131 70C127.686 70 125 72.6863 125 76V101H137V76Z" fill="white"/>
<path fill-rule="evenodd" clip-rule="evenodd" d="M137 76.5V101H130V76.5V76H130.035C130.278 74.3039 131.737 73 133.5 73C135.263 73 136.722 74.3039 136.965 76H137V76.5Z" fill="#B7D4E1"/>
<path fill-rule="evenodd" clip-rule="evenodd" d="M207 76C207 72.6863 204.314 70 201 70C197.686 70 195 72.6863 195 76V101H207V76Z" fill="white"/>
<mask id="path-12-inside-1_7_679" fill="white">
<path fill-rule="evenodd" clip-rule="evenodd" d="M226 112H107C103.134 112 100 115.134 100 119C100 122.866 103.134 126 107 126H226H227V125.929C230.392 125.444 233 122.526 233 119C233 115.474 230.392 112.556 227 112.071V112H226Z"/>
</mask>
<path fill-rule="evenodd" clip-rule="evenodd" d="M226 112H107C103.134 112 100 115.134 100 119C100 122.866 103.134 126 107 126H226H227V125.929C230.392 125.444 233 122.526 233 119C233 115.474 230.392 112.556 227 112.071V112H226Z" fill="white"/>
<path d="M227 126V127H228V126H227ZM227 125.929L226.858 124.939L226 125.062V125.929H227ZM227 112.071H226V112.938L226.858 113.061L227 112.071ZM227 112H228V111H227V112ZM107 113H226V111H107V113ZM101 119C101 115.686 103.686 113 107 113V111C102.582 111 99 114.582 99 119H101ZM107 125C103.686 125 101 122.314 101 119H99C99 123.418 102.582 127 107 127V125ZM226 125H107V127H226V125ZM227 125H226V127H227V125ZM226 125.929V126H228V125.929H226ZM232 119C232 122.022 229.765 124.523 226.858 124.939L227.142 126.919C231.019 126.364 234 123.031 234 119H232ZM226.858 113.061C229.765 113.477 232 115.978 232 119H234C234 114.969 231.019 111.636 227.142 111.081L226.858 113.061ZM226 112V112.071H228V112H226ZM226 113H227V111H226V113Z" fill="#000027" mask="url(#path-12-inside-1_7_679)"/>
<path fill-rule="evenodd" clip-rule="evenodd" d="M224 117H108C105.791 117 104 118.791 104 121C104 123.209 105.791 125 108 125H224C226.209 125 228 123.209 228 121C228 118.791 226.209 117 224 117Z" fill="#A5CDE2"/>
<path fill-rule="evenodd" clip-rule="evenodd" d="M207 76.5V101H200V76.5V76H200.035C200.278 74.3039 201.737 73 203.5 73C205.263 73 206.722 74.3039 206.965 76H207V76.5Z" fill="#B7D4E1"/>
<mask id="path-16-inside-2_7_679" fill="white">
<path fill-rule="evenodd" clip-rule="evenodd" d="M224 131H107V166C107 181 128.27 211 165.135 211C202 211 224 180.5 224 166V131Z"/>
</mask>
<path fill-rule="evenodd" clip-rule="evenodd" d="M224 131H107V166C107 181 128.27 211 165.135 211C202 211 224 180.5 224 166V131Z" fill="white"/>
<path d="M107 131V130H106V131H107ZM224 131H225V130H224V131ZM107 132H224V130H107V132ZM108 166V131H106V166H108ZM165.135 210C146.99 210 132.694 202.621 122.93 193.398C113.119 184.132 108 173.126 108 166H106C106 173.874 111.516 185.368 121.556 194.852C131.643 204.379 146.415 212 165.135 212V210ZM223 166C223 169.401 221.7 173.859 219.106 178.674C216.521 183.473 212.687 188.559 207.709 193.207C197.757 202.499 183.277 210 165.135 210V212C183.858 212 198.81 204.251 209.074 194.668C214.205 189.878 218.175 184.621 220.867 179.623C223.55 174.641 225 169.849 225 166H223ZM223 131V166H225V131H223Z" fill="#000031" mask="url(#path-16-inside-2_7_679)"/>
<path fill-rule="evenodd" clip-rule="evenodd" d="M224 132H114V165.25C114 179.5 133.997 208 168.657 208C203.316 208 224 179.025 224 165.25V132Z" fill="#B0D2E0"/>
<path fill-rule="evenodd" clip-rule="evenodd" d="M217.125 132H115.964V161.364C115.964 161.364 115.964 161.364 115.964 161.364C115.964 173.948 134.355 199.117 166.229 199.117C198.103 199.117 217.125 173.529 217.125 161.364V132Z" fill="white"/>
<circle cx="143" cy="156" r="8.5" fill="#043556" stroke="black"/>
<circle cx="190" cy="156" r="8.5" fill="#043556" stroke="black"/>
<mask id="path-22-outside-3_7_679" maskUnits="userSpaceOnUse" x="152" y="168.5" width="29" height="16" fill="black">
<rect fill="white" x="152" y="168.5" width="29" height="16"/>
<path fill-rule="evenodd" clip-rule="evenodd" d="M153 170C153 177.456 159.044 183.5 166.5 183.5C173.956 183.5 180 177.456 180 170L153 170Z"/>
</mask>
<path fill-rule="evenodd" clip-rule="evenodd" d="M153 170C153 177.456 159.044 183.5 166.5 183.5C173.956 183.5 180 177.456 180 170L153 170Z" fill="#043556"/>
<path d="M153 170L153 169C152.448 169 152 169.448 152 170L153 170ZM180 170L181 170C181 169.735 180.895 169.48 180.707 169.293C180.52 169.105 180.265 169 180 169L180 170ZM166.5 182.5C159.596 182.5 154 176.904 154 170L152 170C152 178.008 158.492 184.5 166.5 184.5L166.5 182.5ZM179 170C179 176.904 173.404 182.5 166.5 182.5L166.5 184.5C174.508 184.5 181 178.008 181 170L179 170ZM180 169L153 169L153 171L180 171L180 169Z" fill="black" mask="url(#path-22-outside-3_7_679)"/>
<path fill-rule="evenodd" clip-rule="evenodd" d="M181 226H150C146.134 226 143 229.134 143 233C143 236.866 146.134 240 150 240H181H182V239.929C185.392 239.444 188 236.526 188 233C188 229.474 185.392 226.556 182 226.071V226H181Z" fill="white"/>
<path d="M172.71 231C172.986 231 173.21 230.776 173.21 230.5L173.21 228L173.21 227.5H181C182.998 227.5 184.387 228.2 185.273 229.206C186.169 230.221 186.592 231.592 186.563 232.99C186.504 235.812 184.642 238.5 181.5 238.5H154.047C153.995 238.238 153.9 237.996 153.763 237.773C153.544 237.419 153.233 237.141 152.869 236.919C152.155 236.483 151.173 236.221 150.072 236.009C149.597 235.918 149.184 235.592 148.864 235.085C148.543 234.577 148.342 233.922 148.288 233.271C148.233 232.615 148.332 232.016 148.553 231.603C148.762 231.213 149.065 231 149.5 231H172.71Z" fill="#4683A2" stroke="#2B7892" stroke-linejoin="round"/>
<mask id="path-26-inside-4_7_679" fill="white">
<path fill-rule="evenodd" clip-rule="evenodd" d="M181 226H150C146.134 226 143 229.134 143 233C143 236.866 146.134 240 150 240H181H182V239.929C185.392 239.444 188 236.526 188 233C188 229.474 185.392 226.556 182 226.071V226H181Z"/>
</mask>
<path d="M182 240V241H183V240H182ZM182 239.929L181.858 238.939L181 239.062V239.929H182ZM182 226.071H181V226.938L181.858 227.061L182 226.071ZM182 226H183V225H182V226ZM150 227H181V225H150V227ZM144 233C144 229.686 146.686 227 150 227V225C145.582 225 142 228.582 142 233H144ZM150 239C146.686 239 144 236.314 144 233H142C142 237.418 145.582 241 150 241V239ZM181 239H150V241H181V239ZM182 239H181V241H182V239ZM181 239.929V240H183V239.929H181ZM187 233C187 236.022 184.765 238.523 181.858 238.939L182.142 240.919C186.019 240.364 189 237.031 189 233H187ZM181.858 227.061C184.765 227.477 187 229.978 187 233H189C189 228.969 186.019 225.636 182.142 225.081L181.858 227.061ZM181 226V226.071H183V226H181ZM181 227H182V225H181V227Z" fill="#000027" mask="url(#path-26-inside-4_7_679)"/>
<path fill-rule="evenodd" clip-rule="evenodd" d="M61.0715 262.142C38.0256 236.541 24 202.658 24 165.5C24 85.6949 88.6949 21 168.5 21C248.305 21 313 85.6949 313 165.5C313 226.843 274.776 279.258 220.847 300.227C210.274 303.596 205.93 290.275 214.053 285.537C262.555 266.995 297 220.02 297 165C297 93.7553 239.245 36 168 36C96.7553 36 39 93.7553 39 165C39 201.277 53.9741 234.056 78.0785 257.494C78.0481 257.495 78.0219 257.497 78 257.5C75.9965 257.75 74.9008 257.479 74.1027 257.282C73.3074 257.085 72.8078 256.962 72 257.5C71.4305 257.88 71.4376 258.331 71.4466 258.91C71.4614 259.855 71.4814 261.139 69 263C65 266 61 262 61 262C61.0238 262.047 61.0477 262.095 61.0715 262.142Z" fill="#053653"/>
<path d="M70.0844 144C70.0844 144 73.1225 156.721 77.8667 161.68C82.0776 166.082 91.3423 168.101 91.3423 168.101C91.3423 168.101 81.5165 169.5 76.5165 175C71.5165 180.5 70.0844 190.5 70.0844 190.5C70.0844 190.5 68.7065 180.921 64.7398 175.977C60.2852 170.426 49.7999 167.529 49.7999 167.529C49.7999 167.529 58.2789 165.471 63.0165 161.68C68.4516 157.331 70.0844 144 70.0844 144Z" fill="white" stroke="white" stroke-linejoin="round"/>
<path d="M268.084 144C268.084 144 271.123 156.721 275.867 161.68C280.078 166.082 289.342 168.101 289.342 168.101C289.342 168.101 279.516 169.5 274.516 175C269.516 180.5 268.084 190.5 268.084 190.5C268.084 190.5 266.707 180.921 262.74 175.977C258.285 170.426 247.8 167.529 247.8 167.529C247.8 167.529 256.279 165.471 261.016 161.68C266.452 157.331 268.084 144 268.084 144Z" fill="white" stroke="white" stroke-linejoin="round"/>
</svg>
