<svg width="289" height="309" viewBox="0 0 289 309" fill="none" xmlns="http://www.w3.org/2000/svg">
<path fill-rule="evenodd" clip-rule="evenodd" d="M53.0001 236.5L78.9999 236.5C95.5001 236.5 113 249 113 270C117.736 270.398 124.019 270.804 131 271.079V253.232C127.147 253.165 123.923 253.085 121.637 253.028C121.227 253.018 120.848 253.008 120.5 253C118 245 104 231 92.9999 227C74.1102 220.131 47.0002 222.5 41.5 224.5C41.5 224.5 41 232 53.0001 236.5ZM153 253.297V271.384C166.362 271.178 179.274 270.138 187 267.5C207.5 260.5 243.5 231.5 244.5 225C245.5 218.5 230 220 220 225C218.754 225.623 216.58 227.303 213.671 229.551C203.495 237.414 184.331 252.222 164.5 253C160.677 253.15 156.8 253.244 153 253.297Z" fill="#3FB9D6"/>
<path fill-rule="evenodd" clip-rule="evenodd" d="M244.262 228.301C262.233 206.752 273 179.295 273 149.394C273 80.1406 215.245 24 144 24C72.7553 24 15 80.1406 15 149.394C15 178.086 24.9144 204.529 41.5948 225.659C41.471 224.935 41.5 224.5 41.5 224.5C47.0002 222.5 74.1102 220.131 92.9999 227C104 231 118 245 120.5 253C120.848 253.008 121.227 253.018 121.637 253.028C124.008 253.087 127.389 253.171 131.435 253.239V230H146V253.352C151.937 253.339 158.289 253.244 164.5 253C184.331 252.222 203.495 237.414 213.671 229.551L213.671 229.551C216.58 227.303 218.754 225.623 220 225C230 220 245.5 218.5 244.5 225C244.425 225.484 244.157 226.092 243.716 226.806C243.976 227.282 244.156 227.781 244.262 228.301Z" fill="#60DDF0"/>
<path d="M149.524 230V276.822C149.524 281.857 147.513 289.11 143.024 293C138.388 297.018 132.335 300.265 125.024 300.5C107.148 301.074 97.4592 287.393 98 275.312H101.185H104.524C104.524 284.374 113.024 289.5 123.524 290C140.5 289.5 141.168 280 141.168 263.732V230H149.524Z" fill="#ADD1DF"/>
<path fill-rule="evenodd" clip-rule="evenodd" d="M126 54.5V81H161V54.5V54H161.007C161.272 44.5662 169.002 37 178.5 37C187.998 37 195.728 44.5662 195.993 54H196V54.5V81H204.5H205V81.0063C214.986 81.2569 223 88.9932 223 98.5C223 105.266 218.941 111.135 213 114.048V144.5V148H212.889C211.399 171.501 194.998 191.477 171.922 200.639C174.461 203.541 176 207.341 176 211.5C176 220.445 168.881 227.728 160 227.993V277.5V278H159.982C159.191 296.216 142.263 308 124.875 308C116.002 308 106.575 305.304 99.2203 299.806C91.7235 294.203 86.375 285.636 86.375 274.5C86.375 264.885 83.6289 261.729 82.0049 260.565C79.9944 259.124 77.4738 259 74.875 259H60.875C50.375 259 50.375 246 60.875 246H74.875L75.0881 246C77.6284 245.997 83.661 245.988 88.9951 249.811C94.8711 254.022 98.375 259 98.375 274.5C98.375 281.365 101.526 286.548 106.405 290.195C111.425 293.947 117.873 295.5 124.5 295.5C138.266 295.008 148.648 287.749 148.991 278H148.966C148.989 277.667 149 277.334 149 277V230H135V270V277V277.5C135 281.5 132.34 286 123.744 286C115.149 286 113 279.167 113 275.5H121.698C122.798 275.5 123.529 275.232 124 274.877V227.933C115.59 227.175 109 220.107 109 211.5C109 207.05 110.761 203.012 113.625 200.044C91.316 190.632 75.5692 171.005 74.1107 148H74V144.5V113.52C68.6085 110.461 65 104.879 65 98.5C65 88.835 73.2827 81 83.5 81C83.6672 81 83.8339 81.0021 84 81.0063V81H91V54.5V54H91.007C91.2717 44.5662 99.0022 37 108.5 37C117.998 37 125.728 44.5662 125.993 54H126V54.5Z" fill="#063655"/>
<path d="M126 81H125.5C125.5 81.2761 125.724 81.5 126 81.5V81ZM161 81V81.5C161.276 81.5 161.5 81.2761 161.5 81H161ZM161 54V53.5C160.724 53.5 160.5 53.7239 160.5 54H161ZM161.007 54V54.5C161.278 54.5 161.499 54.2846 161.507 54.014L161.007 54ZM195.993 54L195.493 54.014C195.501 54.2846 195.722 54.5 195.993 54.5V54ZM196 54H196.5C196.5 53.7239 196.276 53.5 196 53.5V54ZM196 81H195.5C195.5 81.2761 195.724 81.5 196 81.5V81ZM205 81H205.5C205.5 80.7239 205.276 80.5 205 80.5V81ZM205 81.0063H204.5C204.5 81.2775 204.716 81.4993 204.987 81.5061L205 81.0063ZM213 114.048L212.78 113.599C212.609 113.683 212.5 113.857 212.5 114.048H213ZM213 148V148.5C213.276 148.5 213.5 148.276 213.5 148H213ZM212.889 148V147.5C212.625 147.5 212.407 147.705 212.39 147.968L212.889 148ZM171.922 200.639L171.737 200.174C171.586 200.234 171.474 200.364 171.436 200.522C171.398 200.68 171.438 200.846 171.545 200.968L171.922 200.639ZM160 227.993L159.985 227.493C159.715 227.501 159.5 227.722 159.5 227.993H160ZM160 278V278.5C160.276 278.5 160.5 278.276 160.5 278H160ZM159.982 278V277.5C159.715 277.5 159.494 277.711 159.483 277.978L159.982 278ZM99.2203 299.806L99.5196 299.406L99.2203 299.806ZM82.0049 260.565L81.7136 260.971H81.7136L82.0049 260.565ZM74.875 246V246.5H74.8754L74.875 246ZM75.0881 246L75.0886 246.5H75.0888L75.0881 246ZM88.9951 249.811L88.7038 250.217L88.9951 249.811ZM106.405 290.195L106.105 290.595L106.405 290.195ZM124.5 295.5V296C124.506 296 124.512 296 124.518 296L124.5 295.5ZM148.991 278L149.491 278.018C149.496 277.882 149.445 277.75 149.351 277.653C149.257 277.555 149.127 277.5 148.991 277.5V278ZM148.966 278L148.467 277.967C148.458 278.105 148.506 278.24 148.601 278.342C148.696 278.443 148.828 278.5 148.966 278.5V278ZM149 230H149.5C149.5 229.724 149.276 229.5 149 229.5V230ZM135 230V229.5C134.724 229.5 134.5 229.724 134.5 230H135ZM113 275.5V275C112.724 275 112.5 275.224 112.5 275.5H113ZM124 274.877L124.301 275.276C124.426 275.181 124.5 275.034 124.5 274.877H124ZM124 227.933H124.5C124.5 227.674 124.303 227.458 124.045 227.435L124 227.933ZM113.625 200.044L113.985 200.391C114.099 200.273 114.148 200.105 114.115 199.944C114.082 199.782 113.971 199.648 113.819 199.583L113.625 200.044ZM74.1107 148L74.6097 147.968C74.593 147.705 74.3745 147.5 74.1107 147.5V148ZM74 148H73.5C73.5 148.276 73.7239 148.5 74 148.5V148ZM74 113.52H74.5C74.5 113.34 74.4032 113.173 74.2467 113.085L74 113.52ZM84 81.0063L83.9875 81.5061C84.1222 81.5095 84.2526 81.4583 84.3491 81.3642C84.4456 81.2701 84.5 81.1411 84.5 81.0063H84ZM84 81V80.5C83.7239 80.5 83.5 80.7239 83.5 81H84ZM91 81V81.5C91.2761 81.5 91.5 81.2761 91.5 81H91ZM91 54V53.5C90.7239 53.5 90.5 53.7239 90.5 54H91ZM91.007 54V54.5C91.2777 54.5 91.4992 54.2846 91.5068 54.014L91.007 54ZM125.993 54L125.493 54.014C125.501 54.2846 125.722 54.5 125.993 54.5V54ZM126 54H126.5C126.5 53.7239 126.276 53.5 126 53.5V54ZM126.5 81V54.5H125.5V81H126.5ZM161 80.5H126V81.5H161V80.5ZM160.5 54.5V81H161.5V54.5H160.5ZM160.5 54V54.5H161.5V54H160.5ZM161.007 53.5H161V54.5H161.007V53.5ZM178.5 36.5C168.731 36.5 160.779 44.2824 160.507 53.986L161.507 54.014C161.764 44.8501 169.274 37.5 178.5 37.5V36.5ZM196.493 53.986C196.221 44.2824 188.269 36.5 178.5 36.5V37.5C187.726 37.5 195.236 44.8501 195.493 54.014L196.493 53.986ZM196 53.5H195.993V54.5H196V53.5ZM196.5 54.5V54H195.5V54.5H196.5ZM196.5 81V54.5H195.5V81H196.5ZM204.5 80.5H196V81.5H204.5V80.5ZM205 80.5H204.5V81.5H205V80.5ZM205.5 81.0063V81H204.5V81.0063H205.5ZM223.5 98.5C223.5 88.6964 215.244 80.7632 205.013 80.5064L204.987 81.5061C214.729 81.7506 222.5 89.29 222.5 98.5H223.5ZM213.22 114.497C219.315 111.509 223.5 105.475 223.5 98.5H222.5C222.5 105.057 218.566 110.762 212.78 113.599L213.22 114.497ZM213.5 144.5V114.048H212.5V144.5H213.5ZM213.5 148V144.5H212.5V148H213.5ZM212.889 148.5H213V147.5H212.889V148.5ZM172.106 201.104C195.331 191.883 211.884 171.757 213.388 148.032L212.39 147.968C210.915 171.245 194.664 191.071 171.737 200.174L172.106 201.104ZM176.5 211.5C176.5 207.215 174.914 203.299 172.298 200.31L171.545 200.968C174.008 203.783 175.5 207.467 175.5 211.5H176.5ZM160.015 228.492C169.166 228.22 176.5 220.717 176.5 211.5H175.5C175.5 220.174 168.597 227.236 159.985 227.493L160.015 228.492ZM160.5 277.5V227.993H159.5V277.5H160.5ZM160.5 278V277.5H159.5V278H160.5ZM159.982 278.5H160V277.5H159.982V278.5ZM124.875 308.5C142.446 308.5 159.676 296.582 160.482 278.022L159.483 277.978C158.707 295.85 142.079 307.5 124.875 307.5V308.5ZM98.9209 300.207C106.373 305.777 115.909 308.5 124.875 308.5V307.5C116.096 307.5 106.777 304.83 99.5196 299.406L98.9209 300.207ZM85.875 274.5C85.875 285.814 91.3153 294.522 98.9209 300.207L99.5196 299.406C92.1317 293.883 86.875 285.458 86.875 274.5H85.875ZM81.7136 260.971C83.1617 262.009 85.875 264.981 85.875 274.5H86.875C86.875 264.788 84.096 261.448 82.2961 260.158L81.7136 260.971ZM74.875 259.5C77.4862 259.5 79.8495 259.635 81.7136 260.971L82.2961 260.158C80.1394 258.613 77.4615 258.5 74.875 258.5V259.5ZM60.875 259.5H74.875V258.5H60.875V259.5ZM60.875 245.5C58.1443 245.5 56.0475 246.348 54.6285 247.665C53.2118 248.981 52.5 250.74 52.5 252.5C52.5 254.261 53.2118 256.02 54.6285 257.336C56.0475 258.653 58.1443 259.5 60.875 259.5V258.5C58.3557 258.5 56.515 257.723 55.309 256.603C54.1007 255.481 53.5 253.99 53.5 252.5C53.5 251.011 54.1007 249.52 55.309 248.398C56.515 247.278 58.3557 246.5 60.875 246.5V245.5ZM74.875 245.5H60.875V246.5H74.875V245.5ZM75.0876 245.5L74.8745 245.5L74.8754 246.5L75.0886 246.5L75.0876 245.5ZM89.2864 249.405C83.8111 245.481 77.6312 245.497 75.0874 245.5L75.0888 246.5C77.6255 246.497 83.5109 246.496 88.7038 250.217L89.2864 249.405ZM98.875 274.5C98.875 266.721 97.9971 261.523 96.3472 257.723C94.6889 253.905 92.2695 251.543 89.2864 249.405L88.7038 250.217C91.5967 252.291 93.8672 254.523 95.4299 258.122C97.0009 261.739 97.875 266.78 97.875 274.5H98.875ZM106.704 289.794C101.935 286.23 98.875 281.188 98.875 274.5H97.875C97.875 281.543 101.118 286.867 106.105 290.595L106.704 289.794ZM124.5 295C117.944 295 111.613 293.463 106.704 289.794L106.105 290.595C111.238 294.431 117.801 296 124.5 296V295ZM148.492 277.982C148.326 282.668 145.751 286.788 141.489 289.814C137.224 292.842 131.287 294.757 124.482 295L124.518 296C131.479 295.751 137.615 293.791 142.068 290.629C146.525 287.465 149.312 283.081 149.491 278.018L148.492 277.982ZM148.966 278.5H148.991V277.5H148.966V278.5ZM148.5 277C148.5 277.322 148.489 277.645 148.467 277.967L149.465 278.033C149.488 277.69 149.5 277.345 149.5 277H148.5ZM148.5 230V277H149.5V230H148.5ZM135 230.5H149V229.5H135V230.5ZM135.5 270V230H134.5V270H135.5ZM134.5 270V277H135.5V270H134.5ZM134.5 277V277.5H135.5V277H134.5ZM134.5 277.5C134.5 279.39 133.873 281.372 132.254 282.885C130.634 284.398 127.957 285.5 123.744 285.5V286.5C128.126 286.5 131.078 285.352 132.937 283.615C134.797 281.878 135.5 279.61 135.5 277.5H134.5ZM123.744 285.5C119.6 285.5 117.065 283.863 115.55 281.827C114.017 279.766 113.5 277.253 113.5 275.5H112.5C112.5 277.413 113.057 280.151 114.748 282.423C116.456 284.721 119.293 286.5 123.744 286.5V285.5ZM113 276H121.698V275H113V276ZM121.698 276C122.879 276 123.723 275.712 124.301 275.276L123.699 274.478C123.334 274.753 122.717 275 121.698 275V276ZM123.5 227.933V274.877H124.5V227.933H123.5ZM108.5 211.5C108.5 220.368 115.29 227.65 123.955 228.431L124.045 227.435C115.89 226.7 109.5 219.846 109.5 211.5H108.5ZM113.265 199.697C110.315 202.754 108.5 206.916 108.5 211.5H109.5C109.5 207.185 111.208 203.27 113.985 200.391L113.265 199.697ZM73.6117 148.032C75.0841 171.255 90.9763 191.031 113.431 200.505L113.819 199.583C91.6557 190.232 76.0543 170.754 74.6097 147.968L73.6117 148.032ZM74 148.5H74.1107V147.5H74V148.5ZM73.5 144.5V148H74.5V144.5H73.5ZM73.5 113.52V144.5H74.5V113.52H73.5ZM64.5 98.5C64.5 105.076 68.2201 110.816 73.7533 113.954L74.2467 113.085C68.9969 110.107 65.5 104.683 65.5 98.5H64.5ZM83.5 80.5C73.0331 80.5 64.5 88.5331 64.5 98.5H65.5C65.5 89.137 73.5323 81.5 83.5 81.5V80.5ZM84.0125 80.5064C83.8422 80.5022 83.6714 80.5 83.5 80.5V81.5C83.663 81.5 83.8255 81.502 83.9875 81.5061L84.0125 80.5064ZM83.5 81V81.0063H84.5V81H83.5ZM91 80.5H84V81.5H91V80.5ZM90.5 54.5V81H91.5V54.5H90.5ZM90.5 54V54.5H91.5V54H90.5ZM91.007 53.5H91V54.5H91.007V53.5ZM108.5 36.5C98.7308 36.5 90.7794 44.2824 90.5072 53.986L91.5068 54.014C91.7639 44.8501 99.2737 37.5 108.5 37.5V36.5ZM126.493 53.986C126.221 44.2824 118.269 36.5 108.5 36.5V37.5C117.726 37.5 125.236 44.8501 125.493 54.014L126.493 53.986ZM126 53.5H125.993V54.5H126V53.5ZM126.5 54.5V54H125.5V54.5H126.5Z" fill="#00003F"/>
<path fill-rule="evenodd" clip-rule="evenodd" d="M113 55C113 51.6863 110.314 49 107 49C103.686 49 101 51.6863 101 55V80H113V55Z" fill="white"/>
<path fill-rule="evenodd" clip-rule="evenodd" d="M113 55.5V80H106V55.5V55H106.035C106.278 53.3039 107.737 52 109.5 52C111.263 52 112.722 53.3039 112.965 55H113V55.5Z" fill="#B7D4E1"/>
<path fill-rule="evenodd" clip-rule="evenodd" d="M183 55C183 51.6863 180.314 49 177 49C173.686 49 171 51.6863 171 55V80H183V55Z" fill="white"/>
<mask id="path-9-inside-1_7_412" fill="white">
<path fill-rule="evenodd" clip-rule="evenodd" d="M202 91H83C79.134 91 76 94.134 76 98C76 101.866 79.134 105 83 105H202H203V104.929C206.392 104.444 209 101.526 209 98C209 94.4735 206.392 91.5561 203 91.0709V91H202Z"/>
</mask>
<path fill-rule="evenodd" clip-rule="evenodd" d="M202 91H83C79.134 91 76 94.134 76 98C76 101.866 79.134 105 83 105H202H203V104.929C206.392 104.444 209 101.526 209 98C209 94.4735 206.392 91.5561 203 91.0709V91H202Z" fill="white"/>
<path d="M203 105V106H204V105H203ZM203 104.929L202.858 103.939L202 104.062V104.929H203ZM203 91.0709H202V91.938L202.858 92.0608L203 91.0709ZM203 91H204V90H203V91ZM83 92H202V90H83V92ZM77 98C77 94.6863 79.6863 92 83 92V90C78.5817 90 75 93.5817 75 98H77ZM83 104C79.6863 104 77 101.314 77 98H75C75 102.418 78.5817 106 83 106V104ZM202 104H83V106H202V104ZM203 104H202V106H203V104ZM202 104.929V105H204V104.929H202ZM208 98C208 101.022 205.765 103.523 202.858 103.939L203.142 105.919C207.019 105.364 210 102.031 210 98H208ZM202.858 92.0608C205.765 92.4766 208 94.9782 208 98H210C210 93.9689 207.019 90.6356 203.142 90.081L202.858 92.0608ZM202 91V91.0709H204V91H202ZM202 92H203V90H202V92Z" fill="#000027" mask="url(#path-9-inside-1_7_412)"/>
<path fill-rule="evenodd" clip-rule="evenodd" d="M200 96H84C81.7909 96 80 97.7909 80 100C80 102.209 81.7909 104 84 104H200C202.209 104 204 102.209 204 100C204 97.7909 202.209 96 200 96Z" fill="#A5CDE2"/>
<path fill-rule="evenodd" clip-rule="evenodd" d="M183 55.5V80H176V55.5V55H176.035C176.278 53.3039 177.737 52 179.5 52C181.263 52 182.722 53.3039 182.965 55H183V55.5Z" fill="#B7D4E1"/>
<mask id="path-13-inside-2_7_412" fill="white">
<path fill-rule="evenodd" clip-rule="evenodd" d="M200 110H83V145C83 160 104.27 190 141.135 190C178 190 200 159.5 200 145V110Z"/>
</mask>
<path fill-rule="evenodd" clip-rule="evenodd" d="M200 110H83V145C83 160 104.27 190 141.135 190C178 190 200 159.5 200 145V110Z" fill="white"/>
<path d="M83 110V109H82V110H83ZM200 110H201V109H200V110ZM83 111H200V109H83V111ZM84 145V110H82V145H84ZM141.135 189C122.99 189 108.694 181.621 98.9296 172.398C89.119 163.132 84 152.126 84 145H82C82 152.874 87.5158 164.368 97.5563 173.852C107.643 183.379 122.415 191 141.135 191V189ZM199 145C199 148.401 197.7 152.859 195.106 157.674C192.521 162.473 188.687 167.559 183.709 172.207C173.757 181.499 159.277 189 141.135 189V191C159.858 191 174.81 183.251 185.074 173.668C190.205 168.878 194.175 163.621 196.867 158.623C199.55 153.641 201 148.849 201 145H199ZM199 110V145H201V110H199Z" fill="#000031" mask="url(#path-13-inside-2_7_412)"/>
<path fill-rule="evenodd" clip-rule="evenodd" d="M200 111H90V144.25C90 158.5 109.997 187 144.657 187C179.316 187 200 158.025 200 144.25V111Z" fill="#B0D2E0"/>
<path fill-rule="evenodd" clip-rule="evenodd" d="M193.125 111H91.9643V140.364C91.9643 140.364 91.9643 140.364 91.9643 140.364C91.9643 152.948 110.355 178.117 142.229 178.117C174.103 178.117 193.125 152.529 193.125 140.364V111Z" fill="white"/>
<circle cx="119" cy="135" r="8.5" fill="#043556" stroke="black"/>
<circle cx="166" cy="135" r="8.5" fill="#043556" stroke="black"/>
<mask id="path-19-outside-3_7_412" maskUnits="userSpaceOnUse" x="128" y="147.5" width="29" height="16" fill="black">
<rect fill="white" x="128" y="147.5" width="29" height="16"/>
<path fill-rule="evenodd" clip-rule="evenodd" d="M129 149C129 156.456 135.044 162.5 142.5 162.5C149.956 162.5 156 156.456 156 149L129 149Z"/>
</mask>
<path fill-rule="evenodd" clip-rule="evenodd" d="M129 149C129 156.456 135.044 162.5 142.5 162.5C149.956 162.5 156 156.456 156 149L129 149Z" fill="#043556"/>
<path d="M129 149L129 148C128.448 148 128 148.448 128 149L129 149ZM156 149L157 149C157 148.735 156.895 148.48 156.707 148.293C156.52 148.105 156.265 148 156 148L156 149ZM142.5 161.5C135.596 161.5 130 155.904 130 149L128 149C128 157.008 134.492 163.5 142.5 163.5L142.5 161.5ZM155 149C155 155.904 149.404 161.5 142.5 161.5L142.5 163.5C150.508 163.5 157 157.008 157 149L155 149ZM156 148L129 148L129 150L156 150L156 148Z" fill="black" mask="url(#path-19-outside-3_7_412)"/>
<path fill-rule="evenodd" clip-rule="evenodd" d="M157 205H126C122.134 205 119 208.134 119 212C119 215.866 122.134 219 126 219H157H158V218.929C161.392 218.444 164 215.526 164 212C164 208.474 161.392 205.556 158 205.071V205H157Z" fill="white"/>
<path d="M148.71 210C148.986 210 149.21 209.776 149.21 209.5L149.21 207L149.21 206.5H157C158.998 206.5 160.387 207.2 161.273 208.206C162.169 209.221 162.592 210.592 162.563 211.99C162.504 214.812 160.642 217.5 157.5 217.5H130.047C129.995 217.238 129.9 216.996 129.763 216.773C129.544 216.419 129.233 216.141 128.869 215.919C128.155 215.483 127.173 215.221 126.072 215.009C125.597 214.918 125.184 214.592 124.864 214.085C124.543 213.577 124.342 212.922 124.288 212.271C124.233 211.615 124.332 211.016 124.553 210.603C124.762 210.213 125.065 210 125.5 210H148.71Z" fill="#4683A2" stroke="#2B7892" stroke-linejoin="round"/>
<mask id="path-23-inside-4_7_412" fill="white">
<path fill-rule="evenodd" clip-rule="evenodd" d="M157 205H126C122.134 205 119 208.134 119 212C119 215.866 122.134 219 126 219H157H158V218.929C161.392 218.444 164 215.526 164 212C164 208.474 161.392 205.556 158 205.071V205H157Z"/>
</mask>
<path d="M158 219V220H159V219H158ZM158 218.929L157.858 217.939L157 218.062V218.929H158ZM158 205.071H157V205.938L157.858 206.061L158 205.071ZM158 205H159V204H158V205ZM126 206H157V204H126V206ZM120 212C120 208.686 122.686 206 126 206V204C121.582 204 118 207.582 118 212H120ZM126 218C122.686 218 120 215.314 120 212H118C118 216.418 121.582 220 126 220V218ZM157 218H126V220H157V218ZM158 218H157V220H158V218ZM157 218.929V219H159V218.929H157ZM163 212C163 215.022 160.765 217.523 157.858 217.939L158.142 219.919C162.019 219.364 165 216.031 165 212H163ZM157.858 206.061C160.765 206.477 163 208.978 163 212H165C165 207.969 162.019 204.636 158.142 204.081L157.858 206.061ZM157 205V205.071H159V205H157ZM157 206H158V204H157V206Z" fill="#000027" mask="url(#path-23-inside-4_7_412)"/>
<path fill-rule="evenodd" clip-rule="evenodd" d="M37.0715 241.142C14.0256 215.541 0 181.658 0 144.5C0 64.6949 64.6949 0 144.5 0C224.305 0 289 64.6949 289 144.5C289 205.843 250.776 258.258 196.847 279.227C186.274 282.596 181.93 269.275 190.053 264.537C238.555 245.995 273 199.02 273 144C273 72.7553 215.245 15 144 15C72.7553 15 15 72.7553 15 144C15 180.277 29.9741 213.056 54.0785 236.494C54.0481 236.495 54.0219 236.497 54 236.5C51.9965 236.75 50.9008 236.479 50.1027 236.282C49.3074 236.085 48.8078 235.962 48 236.5C47.4305 236.88 47.4376 237.331 47.4466 237.91C47.4614 238.855 47.4814 240.139 45 242C41 245 37 241 37 241C37.0238 241.047 37.0477 241.095 37.0715 241.142Z" fill="#053653"/>
<path d="M46.0844 123C46.0844 123 49.1225 135.721 53.8667 140.68C58.0776 145.082 67.3423 147.101 67.3423 147.101C67.3423 147.101 57.5165 148.5 52.5165 154C47.5165 159.5 46.0844 169.5 46.0844 169.5C46.0844 169.5 44.7065 159.921 40.7398 154.977C36.2852 149.426 25.7999 146.529 25.7999 146.529C25.7999 146.529 34.2789 144.471 39.0165 140.68C44.4516 136.331 46.0844 123 46.0844 123Z" fill="white" stroke="white" stroke-linejoin="round"/>
<path d="M244.084 123C244.084 123 247.123 135.721 251.867 140.68C256.078 145.082 265.342 147.101 265.342 147.101C265.342 147.101 255.516 148.5 250.516 154C245.516 159.5 244.084 169.5 244.084 169.5C244.084 169.5 242.707 159.921 238.74 154.977C234.285 149.426 223.8 146.529 223.8 146.529C223.8 146.529 232.279 144.471 237.016 140.68C242.452 136.331 244.084 123 244.084 123Z" fill="white" stroke="white" stroke-linejoin="round"/>
</svg>
