<svg width="1072" height="147" viewBox="0 0 1072 147" fill="none" xmlns="http://www.w3.org/2000/svg">
<circle cx="73.5" cy="73.5" r="73.5" fill="white"/>
<path fill-rule="evenodd" clip-rule="evenodd" d="M73.5 135.223C108.07 135.223 136.095 107.198 136.095 72.6276C136.095 38.0574 108.07 10.0327 73.5 10.0327C38.9297 10.0327 10.905 38.0574 10.905 72.6276C10.905 92.3689 20.0438 109.976 34.3217 121.448C35.9928 120.261 38.368 119.519 41.003 119.519C46.062 119.519 50.1632 122.253 50.1632 125.626C50.1632 127.201 49.2687 128.637 47.7999 129.72C55.6408 133.255 64.3406 135.223 73.5 135.223Z" fill="white"/>
<ellipse cx="62.3769" cy="132.605" rx="9.16024" ry="4.79822" fill="white"/>
<path fill-rule="evenodd" clip-rule="evenodd" d="M117.016 108.745C124.855 99.3457 129.552 87.369 129.552 74.326C129.552 44.1177 104.359 19.6291 73.2819 19.6291C42.2048 19.6291 17.0118 44.1177 17.0118 74.326C17.0118 86.8419 21.3365 98.376 28.6126 107.593C28.5586 107.277 28.5712 107.088 28.5712 107.088C30.9704 106.215 42.7959 105.182 51.0355 108.178C55.8338 109.923 61.9406 116.03 63.0311 119.519L63.5272 119.532C64.5615 119.557 66.0363 119.594 67.801 119.624V109.487H74.1543V119.673C76.744 119.667 79.5149 119.626 82.2241 119.519C90.8746 119.18 99.2339 112.721 103.673 109.291L103.673 109.29C104.942 108.31 105.89 107.577 106.433 107.306C110.795 105.125 117.556 104.47 117.12 107.306C117.088 107.517 116.971 107.782 116.778 108.093C116.891 108.301 116.97 108.519 117.016 108.745Z" fill="#60DDF0"/>
<path fill-rule="evenodd" clip-rule="evenodd" d="M33.5876 112.322L44.9287 112.322C52.1262 112.322 59.7596 117.774 59.7596 126.935C61.8254 127.108 64.566 127.285 67.6113 127.406V119.62C65.9305 119.591 64.5242 119.556 63.5272 119.532C63.3484 119.527 63.1828 119.523 63.0311 119.519C61.9406 116.03 55.8338 109.923 51.0356 108.178C42.7959 105.182 30.9705 106.215 28.5712 107.088C28.5712 107.088 28.3532 110.359 33.5876 112.322ZM77.2077 119.649V127.538C83.0361 127.449 88.6684 126.995 92.0385 125.844C100.981 122.791 116.684 110.141 117.12 107.306C117.556 104.47 110.795 105.125 106.433 107.306C105.89 107.577 104.941 108.31 103.673 109.291C99.2339 112.721 90.8746 119.18 82.2241 119.519C80.5564 119.585 78.8654 119.626 77.2077 119.649Z" fill="#3FB9D6"/>
<path d="M75.6914 109.487V129.911C75.6914 132.107 74.8141 135.27 72.8561 136.967C70.8338 138.72 68.1937 140.136 65.0044 140.239C57.207 140.489 52.9808 134.522 53.2166 129.252H54.6059H56.0624C56.0624 133.205 59.7701 135.441 64.3502 135.659C71.7552 135.441 72.0466 131.297 72.0466 124.201V109.487H75.6914Z" fill="#ADD1DF"/>
<path fill-rule="evenodd" clip-rule="evenodd" d="M65.4303 32.9332V44.4926H80.6973V32.9332V32.7151H80.7004C80.8158 28.6001 84.1879 25.2997 88.3309 25.2997C92.4738 25.2997 95.8459 28.6001 95.9613 32.7151H95.9644V32.9332V44.4926H99.6721H99.8902V44.4953C104.246 44.6046 107.742 47.9792 107.742 52.1261C107.742 55.0775 105.971 57.6377 103.38 58.908V72.1914V73.7181H103.332C102.682 83.9693 95.5272 92.6828 85.4614 96.6793C86.5691 97.9452 87.2403 99.6026 87.2403 101.417C87.2403 105.319 84.1352 108.496 80.2611 108.611L80.2611 130.206L80.2611 130.424H80.2534C79.9083 138.37 72.5241 143.511 64.9395 143.511C61.0692 143.511 56.9569 142.334 53.7489 139.936C50.4788 137.492 48.1458 133.755 48.1458 128.898C48.1458 124.703 46.9479 123.327 46.2395 122.819C45.3625 122.191 44.2631 122.137 43.1294 122.137H37.0226C32.4425 122.137 32.4425 116.466 37.0226 116.466H43.1294L43.2224 116.466C44.3305 116.464 46.9619 116.461 49.2887 118.128C51.8518 119.965 53.3802 122.137 53.3802 128.898C53.3802 131.892 54.7549 134.153 56.8828 135.744C59.0727 137.381 61.8851 138.058 64.776 138.058C70.7806 137.843 75.3092 134.677 75.4591 130.424H75.4482C75.458 130.279 75.463 130.134 75.463 129.988V109.487H69.3562V129.988C69.3562 130 69.3561 130.014 69.3561 130.028V130.206C69.3561 131.951 68.1956 133.914 64.4463 133.914C60.697 133.914 59.7596 130.933 59.7596 129.334H63.5536C64.0336 129.334 64.3523 129.217 64.5578 129.062V108.585C60.8895 108.254 58.0148 105.171 58.0148 101.417C58.0148 99.4759 58.7832 97.7143 60.0323 96.4198C50.301 92.314 43.4323 83.7527 42.796 73.7181H42.7478V72.1914V58.6776C40.396 57.3437 38.8219 54.9088 38.8219 52.1261C38.8219 47.9102 42.4349 44.4926 46.8917 44.4926C46.9646 44.4926 47.0373 44.4935 47.1098 44.4953V44.4926H50.1632V32.9332V32.7151H50.1662C50.2817 28.6001 53.6538 25.2997 57.7967 25.2997C61.9397 25.2997 65.3118 28.6001 65.4272 32.7151H65.4303V32.9332Z" fill="#063655"/>
<path d="M65.4303 44.4926H64.9303C64.9303 44.7687 65.1541 44.9926 65.4303 44.9926V44.4926ZM80.6973 44.4926V44.9926C80.9735 44.9926 81.1973 44.7687 81.1973 44.4926H80.6973ZM80.6973 32.7151V32.2151C80.4212 32.2151 80.1973 32.439 80.1973 32.7151H80.6973ZM80.7004 32.7151V33.2151C80.9711 33.2151 81.1926 32.9997 81.2002 32.7291L80.7004 32.7151ZM95.9613 32.7151L95.4615 32.7291C95.4691 32.9997 95.6906 33.2151 95.9613 33.2151V32.7151ZM95.9644 32.7151H96.4644C96.4644 32.439 96.2405 32.2151 95.9644 32.2151V32.7151ZM95.9644 44.4926H95.4644C95.4644 44.7687 95.6882 44.9926 95.9644 44.9926V44.4926ZM99.8902 44.4926H100.39C100.39 44.2164 100.166 43.9926 99.8902 43.9926V44.4926ZM99.8902 44.4953H99.3902C99.3902 44.7666 99.6065 44.9883 99.8776 44.9951L99.8902 44.4953ZM103.38 58.908L103.16 58.459C102.988 58.543 102.88 58.7172 102.88 58.908H103.38ZM103.38 73.7181V74.2181C103.656 74.2181 103.88 73.9942 103.88 73.7181H103.38ZM103.332 73.7181V73.2181C103.068 73.2181 102.849 73.4231 102.833 73.6864L103.332 73.7181ZM85.4614 96.6793L85.2769 96.2146C85.1259 96.2746 85.0135 96.4041 84.9753 96.562C84.9372 96.7198 84.9781 96.8864 85.0851 97.0086L85.4614 96.6793ZM80.2611 108.611L80.2462 108.111C79.976 108.119 79.7611 108.341 79.7611 108.611H80.2611ZM80.2611 130.206H79.7611V130.206L80.2611 130.206ZM80.2611 130.424V130.924C80.3937 130.924 80.5209 130.872 80.6147 130.778C80.7084 130.684 80.7611 130.557 80.7611 130.424L80.2611 130.424ZM80.2534 130.424V129.924C79.9857 129.924 79.7655 130.135 79.7539 130.403L80.2534 130.424ZM53.7489 139.936L53.4495 140.337L53.7489 139.936ZM46.2395 122.819L45.9482 123.225H45.9482L46.2395 122.819ZM43.1294 122.137V122.637H43.1294L43.1294 122.137ZM37.0226 122.137L37.0226 122.637H37.0226V122.137ZM37.0226 116.466L37.0226 116.966H37.0226V116.466ZM43.1294 116.466V116.966H43.1299L43.1294 116.466ZM43.2224 116.466L43.2229 116.966H43.2231L43.2224 116.466ZM49.2887 118.128L49.5799 117.722L49.2887 118.128ZM56.8828 135.744L57.1821 135.343L56.8828 135.744ZM64.776 138.058V138.558C64.7819 138.558 64.7879 138.558 64.7938 138.558L64.776 138.058ZM75.4591 130.424L75.9588 130.442C75.9635 130.306 75.913 130.175 75.8188 130.077C75.7246 129.979 75.5947 129.924 75.4591 129.924V130.424ZM75.4482 130.424L74.9494 130.391C74.9401 130.529 74.9885 130.665 75.083 130.766C75.1776 130.867 75.3098 130.924 75.4482 130.924V130.424ZM75.463 109.487H75.963C75.963 109.211 75.7391 108.987 75.463 108.987V109.487ZM69.3562 109.487V108.987C69.08 108.987 68.8562 109.211 68.8562 109.487H69.3562ZM69.3561 130.028L68.8561 130.025V130.028H69.3561ZM59.7596 129.334V128.834C59.4835 128.834 59.2596 129.058 59.2596 129.334H59.7596ZM64.5578 129.062L64.8589 129.461C64.9842 129.367 65.0578 129.219 65.0578 129.062H64.5578ZM64.5578 108.585H65.0578C65.0578 108.326 64.8604 108.11 64.6027 108.087L64.5578 108.585ZM60.0323 96.4198L60.3921 96.767C60.5066 96.6484 60.5552 96.481 60.5221 96.3195C60.4891 96.158 60.3785 96.0232 60.2267 95.9591L60.0323 96.4198ZM42.796 73.7181L43.295 73.6864C43.2783 73.4231 43.0599 73.2181 42.796 73.2181V73.7181ZM42.7478 73.7181H42.2478C42.2478 73.9942 42.4716 74.2181 42.7478 74.2181V73.7181ZM42.7478 58.6776H43.2478C43.2478 58.4976 43.151 58.3315 42.9944 58.2427L42.7478 58.6776ZM47.1098 44.4953L47.0972 44.9951C47.232 44.9985 47.3624 44.9474 47.4589 44.8533C47.5554 44.7592 47.6098 44.6301 47.6098 44.4953H47.1098ZM47.1098 44.4926V43.9926C46.8336 43.9926 46.6098 44.2164 46.6098 44.4926H47.1098ZM50.1632 44.4926V44.9926C50.4393 44.9926 50.6632 44.7687 50.6632 44.4926H50.1632ZM50.1632 32.7151V32.2151C49.887 32.2151 49.6632 32.439 49.6632 32.7151H50.1632ZM50.1662 32.7151V33.2151C50.4369 33.2151 50.6585 32.9997 50.666 32.7291L50.1662 32.7151ZM65.4272 32.7151L64.9274 32.7291C64.935 32.9997 65.1565 33.2151 65.4272 33.2151V32.7151ZM65.4303 32.7151H65.9303C65.9303 32.439 65.7064 32.2151 65.4303 32.2151V32.7151ZM65.9303 44.4926V32.9332H64.9303V44.4926H65.9303ZM80.6973 43.9926H65.4303V44.9926H80.6973V43.9926ZM80.1973 32.9332V44.4926H81.1973V32.9332H80.1973ZM80.1973 32.7151V32.9332H81.1973V32.7151H80.1973ZM80.7004 32.2151H80.6973V33.2151H80.7004V32.2151ZM88.3309 24.7997C83.9165 24.7997 80.3236 28.3163 80.2006 32.7011L81.2002 32.7291C81.3081 28.8839 84.4594 25.7997 88.3309 25.7997V24.7997ZM96.4611 32.7011C96.3381 28.3163 92.7452 24.7997 88.3309 24.7997V25.7997C92.2023 25.7997 95.3536 28.8839 95.4615 32.7291L96.4611 32.7011ZM95.9644 32.2151H95.9613V33.2151H95.9644V32.2151ZM96.4644 32.9332V32.7151H95.4644V32.9332H96.4644ZM96.4644 44.4926V32.9332H95.4644V44.4926H96.4644ZM99.6721 43.9926H95.9644V44.9926H99.6721V43.9926ZM99.8902 43.9926H99.6721V44.9926H99.8902V43.9926ZM100.39 44.4953V44.4926H99.3902V44.4953H100.39ZM108.242 52.1261C108.242 47.6824 104.504 44.1109 99.9027 43.9955L99.8776 44.9951C103.989 45.0983 107.242 48.276 107.242 52.1261H108.242ZM103.6 59.3569C106.346 58.0109 108.242 55.2864 108.242 52.1261H107.242C107.242 54.8687 105.597 57.2645 103.16 58.459L103.6 59.3569ZM103.88 72.1914V58.908H102.88V72.1914H103.88ZM103.88 73.7181V72.1914H102.88V73.7181H103.88ZM103.332 74.2181H103.38V73.2181H103.332V74.2181ZM85.6459 97.1441C95.8608 93.0883 103.166 84.2249 103.831 73.7497L102.833 73.6864C102.197 83.7137 95.1936 92.2773 85.2769 96.2146L85.6459 97.1441ZM87.7403 101.417C87.7403 99.477 87.0221 97.7036 85.8376 96.3501L85.0851 97.0086C86.1161 98.1868 86.7403 99.7283 86.7403 101.417H87.7403ZM80.276 109.111C84.4195 108.987 87.7403 105.59 87.7403 101.417H86.7403C86.7403 105.048 83.8509 108.004 80.2462 108.111L80.276 109.111ZM80.7611 130.206L80.7611 108.611H79.7611L79.7611 130.206H80.7611ZM80.7611 130.424L80.7611 130.206L79.7611 130.206L79.7611 130.424L80.7611 130.424ZM80.2534 130.924H80.2611V129.924H80.2534V130.924ZM64.9395 144.011C72.7078 144.011 80.3929 138.736 80.753 130.446L79.7539 130.403C79.4238 138.004 72.3403 143.011 64.9395 143.011V144.011ZM53.4495 140.337C56.7549 142.807 60.9757 144.011 64.9395 144.011V143.011C61.1627 143.011 57.159 141.861 54.0482 139.536L53.4495 140.337ZM47.6458 128.898C47.6458 133.933 50.0706 137.811 53.4495 140.337L54.0482 139.536C50.8869 137.173 48.6458 133.577 48.6458 128.898H47.6458ZM45.9482 123.225C46.4808 123.607 47.6458 124.8 47.6458 128.898H48.6458C48.6458 124.607 47.4151 123.046 46.5308 122.413L45.9482 123.225ZM43.1294 122.637C44.2754 122.637 45.2176 122.702 45.9482 123.225L46.5308 122.413C45.5075 121.679 44.2507 121.637 43.1294 121.637L43.1294 122.637ZM37.0226 122.637H43.1294V121.637H37.0226V122.637ZM37.0226 115.966C35.7719 115.966 34.7851 116.355 34.1061 116.986C33.4293 117.614 33.0875 118.457 33.0875 119.301C33.0875 120.146 33.4293 120.989 34.1061 121.617C34.7851 122.248 35.7719 122.637 37.0226 122.637L37.0226 121.637C35.9833 121.637 35.2526 121.317 34.7865 120.884C34.3183 120.449 34.0875 119.874 34.0875 119.301C34.0875 118.728 34.3183 118.153 34.7865 117.718C35.2526 117.286 35.9833 116.966 37.0226 116.966L37.0226 115.966ZM43.1294 115.966H37.0226V116.966H43.1294V115.966ZM43.2219 115.966L43.1289 115.966L43.1299 116.966L43.2229 116.966L43.2219 115.966ZM49.5799 117.722C47.112 115.953 44.3333 115.964 43.2217 115.966L43.2231 116.966C44.3276 116.964 46.8118 116.968 48.9974 118.535L49.5799 117.722ZM53.8802 128.898C53.8802 125.488 53.4961 123.176 52.7542 121.467C52.0039 119.74 50.9066 118.673 49.5799 117.722L48.9974 118.535C50.2338 119.421 51.1822 120.358 51.837 121.866C52.5 123.392 52.8802 125.547 52.8802 128.898H53.8802ZM57.1821 135.343C55.1638 133.835 53.8802 131.715 53.8802 128.898H52.8802C52.8802 132.07 54.3459 134.472 56.5834 136.144L57.1821 135.343ZM64.776 137.558C61.9565 137.558 59.2603 136.897 57.1821 135.343L56.5834 136.144C58.885 137.865 61.8137 138.558 64.776 138.558V137.558ZM74.9594 130.407C74.8911 132.344 73.8275 134.067 72.0236 135.348C70.216 136.631 67.682 137.454 64.7581 137.558L64.7938 138.558C67.8745 138.447 70.6071 137.58 72.6025 136.163C74.6014 134.744 75.8771 132.757 75.9588 130.442L74.9594 130.407ZM75.4482 130.924H75.4591V129.924H75.4482V130.924ZM74.963 129.988C74.963 130.122 74.9584 130.257 74.9494 130.391L75.9471 130.458C75.9576 130.302 75.963 130.145 75.963 129.988H74.963ZM74.963 109.487V129.988H75.963V109.487H74.963ZM69.3562 109.987H75.463V108.987H69.3562V109.987ZM69.8562 129.988V109.487H68.8562V129.988H69.8562ZM69.8561 130.03C69.8561 130.015 69.8562 130.001 69.8562 129.988H68.8562C68.8562 130 68.8561 130.012 68.8561 130.025L69.8561 130.03ZM68.8561 130.028V130.206H69.8561V130.028H68.8561ZM68.8561 130.206C68.8561 130.969 68.6041 131.753 67.9659 132.349C67.3264 132.946 66.2363 133.414 64.4463 133.414V134.414C66.4055 134.414 67.7703 133.9 68.6485 133.08C69.5278 132.258 69.8561 131.188 69.8561 130.206H68.8561ZM64.4463 133.414C62.7252 133.414 61.7041 132.74 61.0982 131.925C60.474 131.086 60.2596 130.054 60.2596 129.334H59.2596C59.2596 130.213 59.5139 131.471 60.2958 132.522C61.0958 133.598 62.4181 134.414 64.4463 134.414V133.414ZM59.7596 129.834H63.5536V128.834H59.7596V129.834ZM63.5536 129.834C64.1145 129.834 64.5468 129.697 64.8589 129.461L64.2568 128.663C64.1577 128.737 63.9527 128.834 63.5536 128.834V129.834ZM64.0578 108.585V129.062H65.0578V108.585H64.0578ZM57.5148 101.417C57.5148 105.432 60.5893 108.729 64.513 109.083L64.6027 108.087C61.1897 107.779 58.5148 104.91 58.5148 101.417H57.5148ZM59.6725 96.0726C58.337 97.4566 57.5148 99.3412 57.5148 101.417H58.5148C58.5148 99.6105 59.2293 97.9721 60.3921 96.767L59.6725 96.0726ZM42.297 73.7497C42.9471 84.0034 49.9614 92.7134 59.8379 96.8805L60.2267 95.9591C50.6407 91.9147 43.9174 83.5021 43.295 73.6864L42.297 73.7497ZM42.7478 74.2181H42.796V73.2181H42.7478V74.2181ZM42.2478 72.1914V73.7181H43.2478V72.1914H42.2478ZM42.2478 58.6776V72.1914H43.2478V58.6776H42.2478ZM38.3219 52.1261C38.3219 55.1053 40.0076 57.6983 42.5011 59.1125L42.9944 58.2427C40.7843 56.9892 39.3219 54.7123 39.3219 52.1261H38.3219ZM46.8917 43.9926C42.1853 43.9926 38.3219 47.6083 38.3219 52.1261H39.3219C39.3219 48.2122 42.6845 44.9926 46.8917 44.9926V43.9926ZM47.1223 43.9955C47.0457 43.9935 46.9688 43.9926 46.8917 43.9926V44.9926C46.9604 44.9926 47.029 44.9934 47.0972 44.9951L47.1223 43.9955ZM46.6098 44.4926V44.4953H47.6098V44.4926H46.6098ZM50.1632 43.9926H47.1098V44.9926H50.1632V43.9926ZM49.6632 32.9332V44.4926H50.6632V32.9332H49.6632ZM49.6632 32.7151V32.9332H50.6632V32.7151H49.6632ZM50.1662 32.2151H50.1632V33.2151H50.1662V32.2151ZM57.7967 24.7997C53.3823 24.7997 49.7895 28.3163 49.6664 32.7011L50.666 32.7291C50.7739 28.8839 53.9252 25.7997 57.7967 25.7997V24.7997ZM65.927 32.7011C65.804 28.3163 62.2111 24.7997 57.7967 24.7997V25.7997C61.6682 25.7997 64.8195 28.8839 64.9274 32.7291L65.927 32.7011ZM65.4303 32.2151H65.4272V33.2151H65.4303V32.2151ZM65.9303 32.9332V32.7151H64.9303V32.9332H65.9303Z" fill="#00003F"/>
<path fill-rule="evenodd" clip-rule="evenodd" d="M59.7597 33.167C59.7597 33.1618 59.7597 33.1565 59.7597 33.1513C59.7597 31.7059 58.588 30.5341 57.1425 30.5341C55.6971 30.5341 54.5253 31.7059 54.5253 33.1513C54.5253 33.1513 54.5253 33.1513 54.5253 33.1513H54.5253V44.0564H59.7597V33.167Z" fill="white"/>
<path fill-rule="evenodd" clip-rule="evenodd" d="M56.7218 33.1513C56.8276 32.4115 57.4639 31.8427 58.233 31.8427C59.0021 31.8427 59.6384 32.4115 59.7443 33.1513H59.7598V44.0564H56.7064V33.3825C56.7063 33.3781 56.7063 33.3738 56.7063 33.3694C56.7063 33.3651 56.7063 33.3607 56.7064 33.3564V33.1513H56.7218Z" fill="#B7D4E1"/>
<path fill-rule="evenodd" clip-rule="evenodd" d="M90.2938 33.1513C90.2938 33.1513 90.2938 33.1513 90.2938 33.1513C90.2938 31.7059 89.122 30.5341 87.6766 30.5341C86.2312 30.5341 85.0594 31.7059 85.0594 33.1513C85.0594 33.1549 85.0594 33.1584 85.0594 33.1619V44.0564H90.2938V33.1513H90.2938Z" fill="white"/>
<mask id="path-12-inside-1_7_936" fill="white">
<path fill-rule="evenodd" clip-rule="evenodd" d="M46.6737 54.9614H46.6737V54.9614H98.5817H99.0179V54.9305C100.498 54.7189 101.635 53.4463 101.635 51.908C101.635 50.3698 100.498 49.0972 99.0179 48.8855V48.8546H98.5817H46.6807L46.6737 48.8546C44.9873 48.8546 43.6202 50.2217 43.6202 51.908C43.6202 53.5944 44.9873 54.9614 46.6737 54.9614Z"/>
</mask>
<path fill-rule="evenodd" clip-rule="evenodd" d="M46.6737 54.9614H46.6737V54.9614H98.5817H99.0179V54.9305C100.498 54.7189 101.635 53.4463 101.635 51.908C101.635 50.3698 100.498 49.0972 99.0179 48.8855V48.8546H98.5817H46.6807L46.6737 48.8546C44.9873 48.8546 43.6202 50.2217 43.6202 51.908C43.6202 53.5944 44.9873 54.9614 46.6737 54.9614Z" fill="white"/>
<path d="M46.6737 54.9614H47.6737V53.9614H46.6737V54.9614ZM46.6737 54.9614H45.6737V55.9614H46.6737V54.9614ZM99.0179 54.9614V55.9614H100.018V54.9614H99.0179ZM99.0179 54.9305L98.8763 53.9406L98.0179 54.0634V54.9305H99.0179ZM99.0179 48.8855H98.0179V49.7527L98.8763 49.8755L99.0179 48.8855ZM99.0179 48.8546H100.018V47.8546H99.0179V48.8546ZM46.6807 48.8546L46.6796 49.8546H46.6807V48.8546ZM46.6737 48.8546L46.6748 47.8546H46.6737V48.8546ZM46.6737 53.9614H46.6737V55.9614H46.6737V53.9614ZM47.6737 54.9614V54.9614H45.6737V54.9614H47.6737ZM98.5817 53.9614H46.6737V55.9614H98.5817V53.9614ZM99.0179 53.9614H98.5817V55.9614H99.0179V53.9614ZM98.0179 54.9305V54.9614H100.018V54.9305H98.0179ZM100.635 51.908C100.635 52.9416 99.8705 53.7984 98.8763 53.9406L99.1595 55.9204C101.125 55.6393 102.635 53.9509 102.635 51.908H100.635ZM98.8763 49.8755C99.8705 50.0177 100.635 50.8744 100.635 51.908H102.635C102.635 49.8651 101.125 48.1767 99.1595 47.8956L98.8763 49.8755ZM98.0179 48.8546V48.8855H100.018V48.8546H98.0179ZM98.5817 49.8546H99.0179V47.8546H98.5817V49.8546ZM46.6807 49.8546H98.5817V47.8546H46.6807V49.8546ZM46.6725 49.8546L46.6796 49.8546L46.6818 47.8546L46.6748 47.8546L46.6725 49.8546ZM44.6202 51.908C44.6202 50.774 45.5396 49.8546 46.6737 49.8546V47.8546C44.435 47.8546 42.6202 49.6694 42.6202 51.908H44.6202ZM46.6737 53.9614C45.5396 53.9614 44.6202 53.0421 44.6202 51.908H42.6202C42.6202 54.1467 44.435 55.9614 46.6737 55.9614V53.9614Z" fill="#000027" mask="url(#path-12-inside-1_7_936)"/>
<path fill-rule="evenodd" clip-rule="evenodd" d="M97.7093 51.0356H47.1193L47.1099 51.0356C46.1462 51.0356 45.3651 51.8168 45.3651 52.7804C45.3651 53.744 46.1462 54.5252 47.1099 54.5252V54.5252H97.7093C98.6729 54.5252 99.4541 53.744 99.4541 52.7804C99.4541 51.8168 98.6729 51.0356 97.7093 51.0356Z" fill="#A5CDE2"/>
<path fill-rule="evenodd" clip-rule="evenodd" d="M90.2938 33.3706V44.0564H87.2404V33.3694V33.1513H87.2559C87.3617 32.4115 87.998 31.8427 88.7671 31.8427C89.5363 31.8427 90.1726 32.4115 90.2784 33.1513H90.2938V33.3682C90.2938 33.3686 90.2938 33.369 90.2938 33.3694C90.2938 33.3698 90.2938 33.3702 90.2938 33.3706Z" fill="#B7D4E1"/>
<mask id="path-16-inside-2_7_936" fill="white">
<path fill-rule="evenodd" clip-rule="evenodd" d="M97.7093 57.1425H46.6736V72.4095C46.6737 78.9526 55.9515 92.0386 72.0322 92.0386C88.1128 92.0386 97.7093 78.7344 97.7093 72.4095C97.7093 72.4045 97.7093 72.3995 97.7093 72.3944V57.1425Z"/>
</mask>
<path fill-rule="evenodd" clip-rule="evenodd" d="M97.7093 57.1425H46.6736V72.4095C46.6737 78.9526 55.9515 92.0386 72.0322 92.0386C88.1128 92.0386 97.7093 78.7344 97.7093 72.4095C97.7093 72.4045 97.7093 72.3995 97.7093 72.3944V57.1425Z" fill="white"/>
<path d="M46.6736 57.1425V56.1425H45.6736V57.1425H46.6736ZM97.7093 57.1425H98.7093V56.1425H97.7093V57.1425ZM46.6736 72.4095H45.6736V72.4095L46.6736 72.4095ZM46.6736 58.1425H97.7093V56.1425H46.6736V58.1425ZM47.6736 72.4095V57.1425H45.6736V72.4095H47.6736ZM72.0322 91.0386C64.2792 91.0386 58.1779 87.888 54.0093 83.9507C49.7947 79.9699 47.6737 75.3075 47.6736 72.4095L45.6736 72.4095C45.6737 76.0546 48.1915 81.2067 52.636 85.4047C57.1266 89.6461 63.7045 93.0386 72.0322 93.0386V91.0386ZM96.7093 72.4095C96.7093 73.7662 96.1843 75.617 95.0782 77.6706C93.9809 79.7077 92.3469 81.8778 90.2185 83.8649C85.9652 87.836 79.7817 91.0386 72.0322 91.0386V93.0386C80.3633 93.0386 87.0183 89.589 91.5834 85.3268C93.8643 83.1973 95.6344 80.8554 96.839 78.6191C98.0346 76.3993 98.7093 74.2152 98.7093 72.4095H96.7093ZM96.7093 72.3944C96.7093 72.3974 96.7093 72.4003 96.7093 72.4027C96.7093 72.4053 96.7093 72.4074 96.7093 72.4095H98.7093C98.7093 72.4065 98.7093 72.4037 98.7093 72.4012C98.7093 72.3986 98.7093 72.3965 98.7093 72.3944H96.7093ZM96.7093 57.1425V72.3944H98.7093V57.1425H96.7093Z" fill="#000031" mask="url(#path-16-inside-2_7_936)"/>
<path fill-rule="evenodd" clip-rule="evenodd" d="M97.7093 57.5786H49.7271V72.0449C49.7271 72.0573 49.7271 72.0698 49.7271 72.0823C49.7271 78.2982 58.4498 90.73 73.5684 90.73C88.687 90.73 97.7092 78.091 97.7092 72.0823L97.7093 72.0823V57.5786Z" fill="#B0D2E0"/>
<path fill-rule="evenodd" clip-rule="evenodd" d="M94.7104 57.5786H50.5839V70.3771C50.5839 70.3805 50.5839 70.3838 50.5839 70.3871C50.5839 70.3871 50.5839 70.3871 50.5839 70.3871C50.5839 75.8764 58.6057 86.8551 72.5094 86.8551C86.4131 86.8551 94.7103 75.6935 94.7104 70.3871V57.5786Z" fill="white"/>
<circle cx="62.3769" cy="68.0475" r="3.42582" fill="#043556" stroke="black"/>
<circle cx="82.8784" cy="68.0475" r="3.42582" fill="#043556" stroke="black"/>
<mask id="path-22-outside-3_7_936" maskUnits="userSpaceOnUse" x="65.5164" y="73.043" width="14" height="8" fill="black">
<rect fill="white" x="65.5164" y="73.043" width="14" height="8"/>
<path fill-rule="evenodd" clip-rule="evenodd" d="M66.7389 74.1543C66.7389 77.4066 69.3754 80.043 72.6276 80.043C75.8799 80.043 78.5164 77.4066 78.5164 74.1543L66.7389 74.1543Z"/>
</mask>
<path fill-rule="evenodd" clip-rule="evenodd" d="M66.7389 74.1543C66.7389 77.4066 69.3754 80.043 72.6276 80.043C75.8799 80.043 78.5164 77.4066 78.5164 74.1543L66.7389 74.1543Z" fill="#043556"/>
<path d="M66.7389 74.1543L66.7389 73.1543C66.1866 73.1543 65.7389 73.602 65.7389 74.1543L66.7389 74.1543ZM78.5164 74.1543L79.5164 74.1543C79.5164 73.602 79.0686 73.1543 78.5164 73.1543L78.5164 74.1543ZM72.6276 79.043C69.9277 79.043 67.7389 76.8543 67.7389 74.1543L65.7389 74.1543C65.7389 77.9588 68.8231 81.043 72.6276 81.043L72.6276 79.043ZM77.5164 74.1543C77.5164 76.8543 75.3276 79.043 72.6276 79.043L72.6276 81.043C76.4322 81.043 79.5164 77.9588 79.5164 74.1543L77.5164 74.1543ZM78.5164 73.1543L66.7389 73.1543L66.7389 75.1543L78.5164 75.1543L78.5164 73.1543Z" fill="black" mask="url(#path-22-outside-3_7_936)"/>
<path fill-rule="evenodd" clip-rule="evenodd" d="M65.4303 104.688L65.4333 104.688H78.9526H79.3888V104.658C80.8685 104.446 82.006 103.173 82.006 101.635C82.006 100.097 80.8685 98.8242 79.3888 98.6125V98.5816H78.9526H65.4303H65.4303C63.744 98.5816 62.3769 99.9487 62.3769 101.635C62.3769 103.321 63.744 104.688 65.4303 104.688Z" fill="white"/>
<path d="M75.3366 101.045C75.6127 101.045 75.8366 100.821 75.8366 100.545L75.8366 99.5178H78.9526C79.7527 99.5178 80.2779 99.7953 80.6052 100.166C80.9412 100.547 81.1086 101.073 81.0971 101.625C81.0736 102.756 80.3394 103.752 79.1707 103.752H67.4045C67.3789 103.689 67.348 103.628 67.3115 103.569C67.1872 103.368 67.015 103.218 66.8285 103.104C66.4705 102.885 65.9978 102.764 65.5151 102.671C65.4063 102.65 65.2849 102.571 65.1732 102.394C65.061 102.216 64.9848 101.976 64.9644 101.73C64.9435 101.479 64.9847 101.277 65.0478 101.159C65.0986 101.064 65.144 101.045 65.2122 101.045H75.3366Z" fill="#4683A2" stroke="#2B7892" stroke-linejoin="round"/>
<mask id="path-26-inside-4_7_936" fill="white">
<path fill-rule="evenodd" clip-rule="evenodd" d="M65.4303 104.688L65.4333 104.688H78.9526H79.3888V104.658C80.8685 104.446 82.006 103.173 82.006 101.635C82.006 100.097 80.8685 98.8242 79.3888 98.6125V98.5816H78.9526H65.4303H65.4303C63.744 98.5816 62.3769 99.9487 62.3769 101.635C62.3769 103.321 63.744 104.688 65.4303 104.688Z"/>
</mask>
<path d="M65.4333 104.688V103.688H65.4328L65.4333 104.688ZM65.4303 104.688V105.688H65.4308L65.4303 104.688ZM79.3888 104.688V105.688H80.3888V104.688H79.3888ZM79.3888 104.658L79.2472 103.668L78.3888 103.79V104.658H79.3888ZM79.3888 98.6125H78.3888V99.4797L79.2472 99.6025L79.3888 98.6125ZM79.3888 98.5816H80.3888V97.5816H79.3888V98.5816ZM65.4328 103.688L65.4298 103.688L65.4308 105.688L65.4338 105.688L65.4328 103.688ZM78.9526 103.688H65.4333V105.688H78.9526V103.688ZM79.3888 103.688H78.9526V105.688H79.3888V103.688ZM78.3888 104.658V104.688H80.3888V104.658H78.3888ZM81.006 101.635C81.006 102.669 80.2414 103.525 79.2472 103.668L79.5304 105.647C81.4957 105.366 83.006 103.678 83.006 101.635H81.006ZM79.2472 99.6025C80.2414 99.7447 81.006 100.601 81.006 101.635H83.006C83.006 99.5921 81.4957 97.9037 79.5304 97.6226L79.2472 99.6025ZM78.3888 98.5816V98.6125H80.3888V98.5816H78.3888ZM78.9526 99.5816H79.3888V97.5816H78.9526V99.5816ZM65.4303 99.5816H78.9526V97.5816H65.4303V99.5816ZM65.4303 99.5816H65.4303V97.5816H65.4303V99.5816ZM63.3769 101.635C63.3769 100.501 64.2962 99.5816 65.4303 99.5816V97.5816C63.1917 97.5816 61.3769 99.3964 61.3769 101.635H63.3769ZM65.4303 103.688C64.2962 103.688 63.3769 102.769 63.3769 101.635H61.3769C61.3769 103.874 63.1917 105.688 65.4303 105.688V103.688Z" fill="#000027" mask="url(#path-26-inside-4_7_936)"/>
<path fill-rule="evenodd" clip-rule="evenodd" d="M26.6395 114.347C16.5868 103.179 10.4689 88.3999 10.4689 72.1914C10.4689 37.3802 38.6889 9.16022 73.5 9.16022C108.311 9.16022 136.531 37.3802 136.531 72.1914C136.531 98.9493 119.858 121.813 96.3337 130.959C91.7217 132.429 89.8269 126.618 93.3702 124.552C114.527 116.464 129.552 95.9731 129.552 71.9733C129.552 40.8962 104.359 15.7033 73.2819 15.7033C42.2048 15.7033 17.0119 40.8962 17.0119 71.9733C17.0119 87.7972 23.5436 102.096 34.058 112.319C34.0447 112.32 34.0333 112.321 34.0237 112.322C33.1498 112.431 32.6719 112.313 32.3237 112.227C31.9768 112.141 31.7589 112.087 31.4065 112.322C31.1581 112.488 31.1612 112.685 31.1651 112.937C31.1716 113.349 31.1803 113.909 30.0979 114.721C28.3531 116.03 26.6083 114.285 26.6083 114.285C26.6187 114.306 26.6291 114.326 26.6395 114.347Z" fill="#053653"/>
<path d="M30.5709 62.813C30.5709 62.813 31.8962 68.362 33.9656 70.5252C35.8024 72.4452 39.8437 73.3258 39.8437 73.3258C39.8437 73.3258 35.5576 73.9362 33.3766 76.3353C31.1956 78.7344 30.5709 83.0964 30.5709 83.0964C30.5709 83.0964 29.9699 78.9181 28.2396 76.7617C26.2965 74.3401 21.7228 73.0764 21.7228 73.0764C21.7228 73.0764 25.4214 72.1788 27.4879 70.5252C29.8587 68.6281 30.5709 62.813 30.5709 62.813Z" fill="white" stroke="white" stroke-linejoin="round"/>
<path d="M116.939 62.813C116.939 62.813 118.264 68.362 120.333 70.5252C122.17 72.4452 126.212 73.3258 126.212 73.3258C126.212 73.3258 121.926 73.9362 119.745 76.3353C117.564 78.7344 116.939 83.0964 116.939 83.0964C116.939 83.0964 116.338 78.9181 114.608 76.7617C112.664 74.3401 108.091 73.0764 108.091 73.0764C108.091 73.0764 111.789 72.1788 113.856 70.5252C116.227 68.6281 116.939 62.813 116.939 62.813Z" fill="white" stroke="white" stroke-linejoin="round"/>
<path d="M217.16 118.2C210.76 118.2 204.8 117.16 199.28 115.08C193.84 112.92 189.08 109.92 185 106.08C181 102.16 177.88 97.56 175.64 92.28C173.4 87 172.28 81.24 172.28 75C172.28 68.76 173.4 63 175.64 57.72C177.88 52.44 181.04 47.88 185.12 44.04C189.2 40.12 193.96 37.12 199.4 35.04C204.84 32.88 210.8 31.8 217.28 31.8C224.16 31.8 230.44 33 236.12 35.4C241.8 37.72 246.6 41.2 250.52 45.84L240.44 55.32C237.4 52.04 234 49.6 230.24 48C226.48 46.32 222.4 45.48 218 45.48C213.6 45.48 209.56 46.2 205.88 47.64C202.28 49.08 199.12 51.12 196.4 53.76C193.76 56.4 191.68 59.52 190.16 63.12C188.72 66.72 188 70.68 188 75C188 79.32 188.72 83.28 190.16 86.88C191.68 90.48 193.76 93.6 196.4 96.24C199.12 98.88 202.28 100.92 205.88 102.36C209.56 103.8 213.6 104.52 218 104.52C222.4 104.52 226.48 103.72 230.24 102.12C234 100.44 237.4 97.92 240.44 94.56L250.52 104.16C246.6 108.72 241.8 112.2 236.12 114.6C230.44 117 224.12 118.2 217.16 118.2ZM296.788 52.2C301.908 52.2 306.468 53.2 310.468 55.2C314.548 57.2 317.748 60.28 320.068 64.44C322.388 68.52 323.548 73.8 323.548 80.28V117H308.548V82.2C308.548 76.52 307.188 72.28 304.468 69.48C301.828 66.68 298.108 65.28 293.308 65.28C289.788 65.28 286.668 66 283.948 67.44C281.228 68.88 279.108 71.04 277.588 73.92C276.148 76.72 275.428 80.28 275.428 84.6V117H260.428V27.96H275.428V70.2L272.188 64.92C274.428 60.84 277.668 57.72 281.908 55.56C286.228 53.32 291.188 52.2 296.788 52.2ZM378.456 117V104.04L377.616 101.28V78.6C377.616 74.2 376.296 70.8 373.656 68.4C371.016 65.92 367.016 64.68 361.656 64.68C358.056 64.68 354.496 65.24 350.976 66.36C347.536 67.48 344.616 69.04 342.216 71.04L336.336 60.12C339.776 57.48 343.856 55.52 348.576 54.24C353.376 52.88 358.336 52.2 363.456 52.2C372.736 52.2 379.896 54.44 384.936 58.92C390.056 63.32 392.616 70.16 392.616 79.44V117H378.456ZM358.296 117.84C353.496 117.84 349.296 117.04 345.696 115.44C342.096 113.76 339.296 111.48 337.296 108.6C335.376 105.64 334.416 102.32 334.416 98.64C334.416 95.04 335.256 91.8 336.936 88.92C338.696 86.04 341.536 83.76 345.456 82.08C349.376 80.4 354.576 79.56 361.056 79.56H379.656V89.52H362.136C357.016 89.52 353.576 90.36 351.816 92.04C350.056 93.64 349.176 95.64 349.176 98.04C349.176 100.76 350.256 102.92 352.416 104.52C354.576 106.12 357.576 106.92 361.416 106.92C365.096 106.92 368.376 106.08 371.256 104.4C374.216 102.72 376.336 100.24 377.616 96.96L380.136 105.96C378.696 109.72 376.096 112.64 372.336 114.72C368.656 116.8 363.976 117.84 358.296 117.84ZM408.267 117V52.92H422.547V70.56L420.867 65.4C422.787 61.08 425.787 57.8 429.867 55.56C434.027 53.32 439.187 52.2 445.347 52.2V66.48C444.707 66.32 444.107 66.24 443.547 66.24C442.987 66.16 442.427 66.12 441.867 66.12C436.187 66.12 431.667 67.8 428.307 71.16C424.947 74.44 423.267 79.36 423.267 85.92V117H408.267ZM482.925 141.12C477.005 141.12 471.205 140.32 465.525 138.72C459.925 137.2 455.325 134.96 451.725 132L458.445 120.72C461.245 123.04 464.765 124.88 469.005 126.24C473.325 127.68 477.685 128.4 482.085 128.4C489.125 128.4 494.285 126.76 497.565 123.48C500.845 120.28 502.485 115.44 502.485 108.96V97.56L503.685 83.04L503.205 68.52V52.92H517.485V107.28C517.485 118.88 514.525 127.4 508.605 132.84C502.685 138.36 494.125 141.12 482.925 141.12ZM481.005 114.12C474.925 114.12 469.405 112.84 464.445 110.28C459.565 107.64 455.685 104 452.805 99.36C450.005 94.72 448.605 89.28 448.605 83.04C448.605 76.88 450.005 71.48 452.805 66.84C455.685 62.2 459.565 58.6 464.445 56.04C469.405 53.48 474.925 52.2 481.005 52.2C486.445 52.2 491.325 53.28 495.645 55.44C499.965 57.6 503.405 60.96 505.965 65.52C508.605 70.08 509.925 75.92 509.925 83.04C509.925 90.16 508.605 96.04 505.965 100.68C503.405 105.24 499.965 108.64 495.645 110.88C491.325 113.04 486.445 114.12 481.005 114.12ZM483.285 101.4C487.045 101.4 490.405 100.64 493.365 99.12C496.325 97.52 498.605 95.36 500.205 92.64C501.885 89.84 502.725 86.64 502.725 83.04C502.725 79.44 501.885 76.28 500.205 73.56C498.605 70.76 496.325 68.64 493.365 67.2C490.405 65.68 487.045 64.92 483.285 64.92C479.525 64.92 476.125 65.68 473.085 67.2C470.125 68.64 467.805 70.76 466.125 73.56C464.525 76.28 463.725 79.44 463.725 83.04C463.725 86.64 464.525 89.84 466.125 92.64C467.805 95.36 470.125 97.52 473.085 99.12C476.125 100.64 479.525 101.4 483.285 101.4ZM563.726 117.84C556.606 117.84 550.366 116.44 545.006 113.64C539.726 110.76 535.606 106.84 532.646 101.88C529.766 96.92 528.326 91.28 528.326 84.96C528.326 78.56 529.726 72.92 532.526 68.04C535.406 63.08 539.326 59.2 544.286 56.4C549.326 53.6 555.046 52.2 561.446 52.2C567.686 52.2 573.246 53.56 578.126 56.28C583.006 59 586.846 62.84 589.646 67.8C592.446 72.76 593.846 78.6 593.846 85.32C593.846 85.96 593.806 86.68 593.726 87.48C593.726 88.28 593.686 89.04 593.606 89.76H540.206V79.8H585.686L579.806 82.92C579.886 79.24 579.126 76 577.526 73.2C575.926 70.4 573.726 68.2 570.926 66.6C568.206 65 565.046 64.2 561.446 64.2C557.766 64.2 554.526 65 551.726 66.6C549.006 68.2 546.846 70.44 545.246 73.32C543.726 76.12 542.966 79.44 542.966 83.28V85.68C542.966 89.52 543.846 92.92 545.606 95.88C547.366 98.84 549.846 101.12 553.046 102.72C556.246 104.32 559.926 105.12 564.086 105.12C567.686 105.12 570.926 104.56 573.806 103.44C576.686 102.32 579.246 100.56 581.486 98.16L589.526 107.4C586.646 110.76 583.006 113.36 578.606 115.2C574.286 116.96 569.326 117.84 563.726 117.84ZM635.658 117V33H675.018C685.098 33 692.778 35 698.058 39C703.338 42.92 705.978 48.2 705.978 54.84C705.978 59.32 704.938 63.16 702.858 66.36C700.778 69.48 697.978 71.92 694.458 73.68C691.018 75.36 687.258 76.2 683.178 76.2L685.338 71.88C690.058 71.88 694.298 72.76 698.058 74.52C701.818 76.2 704.778 78.68 706.938 81.96C709.178 85.24 710.298 89.32 710.298 94.2C710.298 101.4 707.538 107 702.018 111C696.498 115 688.298 117 677.418 117H635.658ZM651.258 104.76H676.458C682.298 104.76 686.778 103.8 689.898 101.88C693.018 99.96 694.578 96.88 694.578 92.64C694.578 88.48 693.018 85.44 689.898 83.52C686.778 81.52 682.298 80.52 676.458 80.52H650.058V68.4H673.338C678.778 68.4 682.938 67.44 685.818 65.52C688.778 63.6 690.258 60.72 690.258 56.88C690.258 52.96 688.778 50.04 685.818 48.12C682.938 46.2 678.778 45.24 673.338 45.24H651.258V104.76ZM752.027 117.84C744.907 117.84 738.667 116.44 733.307 113.64C728.027 110.76 723.907 106.84 720.947 101.88C718.067 96.92 716.627 91.28 716.627 84.96C716.627 78.56 718.027 72.92 720.827 68.04C723.707 63.08 727.627 59.2 732.587 56.4C737.627 53.6 743.347 52.2 749.747 52.2C755.987 52.2 761.547 53.56 766.427 56.28C771.307 59 775.147 62.84 777.947 67.8C780.747 72.76 782.147 78.6 782.147 85.32C782.147 85.96 782.107 86.68 782.027 87.48C782.027 88.28 781.987 89.04 781.907 89.76H728.507V79.8H773.987L768.107 82.92C768.187 79.24 767.427 76 765.827 73.2C764.227 70.4 762.027 68.2 759.227 66.6C756.507 65 753.347 64.2 749.747 64.2C746.067 64.2 742.827 65 740.027 66.6C737.307 68.2 735.147 70.44 733.547 73.32C732.027 76.12 731.267 79.44 731.267 83.28V85.68C731.267 89.52 732.147 92.92 733.907 95.88C735.667 98.84 738.147 101.12 741.347 102.72C744.547 104.32 748.227 105.12 752.387 105.12C755.987 105.12 759.227 104.56 762.107 103.44C764.987 102.32 767.547 100.56 769.787 98.16L777.827 107.4C774.947 110.76 771.307 113.36 766.907 115.2C762.587 116.96 757.627 117.84 752.027 117.84ZM830.678 117V104.04L829.838 101.28V78.6C829.838 74.2 828.518 70.8 825.878 68.4C823.238 65.92 819.238 64.68 813.878 64.68C810.278 64.68 806.718 65.24 803.198 66.36C799.758 67.48 796.838 69.04 794.438 71.04L788.558 60.12C791.998 57.48 796.078 55.52 800.798 54.24C805.598 52.88 810.558 52.2 815.678 52.2C824.958 52.2 832.118 54.44 837.158 58.92C842.278 63.32 844.838 70.16 844.838 79.44V117H830.678ZM810.518 117.84C805.718 117.84 801.518 117.04 797.918 115.44C794.318 113.76 791.518 111.48 789.518 108.6C787.598 105.64 786.638 102.32 786.638 98.64C786.638 95.04 787.478 91.8 789.158 88.92C790.918 86.04 793.758 83.76 797.678 82.08C801.598 80.4 806.798 79.56 813.278 79.56H831.878V89.52H814.358C809.238 89.52 805.798 90.36 804.038 92.04C802.278 93.64 801.398 95.64 801.398 98.04C801.398 100.76 802.478 102.92 804.638 104.52C806.798 106.12 809.798 106.92 813.638 106.92C817.318 106.92 820.598 106.08 823.478 104.4C826.438 102.72 828.558 100.24 829.838 96.96L832.358 105.96C830.918 109.72 828.318 112.64 824.558 114.72C820.878 116.8 816.198 117.84 810.518 117.84ZM890.006 117.84C883.286 117.84 877.286 116.44 872.006 113.64C866.806 110.76 862.726 106.84 859.766 101.88C856.806 96.92 855.326 91.28 855.326 84.96C855.326 78.56 856.806 72.92 859.766 68.04C862.726 63.08 866.806 59.2 872.006 56.4C877.286 53.6 883.286 52.2 890.006 52.2C896.246 52.2 901.726 53.48 906.446 56.04C911.246 58.52 914.886 62.2 917.366 67.08L905.846 73.8C903.926 70.76 901.566 68.52 898.766 67.08C896.046 65.64 893.086 64.92 889.886 64.92C886.206 64.92 882.886 65.72 879.926 67.32C876.966 68.92 874.646 71.24 872.966 74.28C871.286 77.24 870.446 80.8 870.446 84.96C870.446 89.12 871.286 92.72 872.966 95.76C874.646 98.72 876.966 101 879.926 102.6C882.886 104.2 886.206 105 889.886 105C893.086 105 896.046 104.28 898.766 102.84C901.566 101.4 903.926 99.16 905.846 96.12L917.366 102.84C914.886 107.64 911.246 111.36 906.446 114C901.726 116.56 896.246 117.84 890.006 117.84ZM954.595 117.84C948.035 117.84 942.195 116.44 937.075 113.64C931.955 110.76 927.915 106.84 924.955 101.88C921.995 96.92 920.515 91.28 920.515 84.96C920.515 78.56 921.995 72.92 924.955 68.04C927.915 63.08 931.955 59.2 937.075 56.4C942.195 53.6 948.035 52.2 954.595 52.2C961.235 52.2 967.115 53.6 972.235 56.4C977.435 59.2 981.475 63.04 984.355 67.92C987.315 72.8 988.795 78.48 988.795 84.96C988.795 91.28 987.315 96.92 984.355 101.88C981.475 106.84 977.435 110.76 972.235 113.64C967.115 116.44 961.235 117.84 954.595 117.84ZM954.595 105C958.275 105 961.555 104.2 964.435 102.6C967.315 101 969.555 98.68 971.155 95.64C972.835 92.6 973.675 89.04 973.675 84.96C973.675 80.8 972.835 77.24 971.155 74.28C969.555 71.24 967.315 68.92 964.435 67.32C961.555 65.72 958.315 64.92 954.715 64.92C951.035 64.92 947.755 65.72 944.875 67.32C942.075 68.92 939.835 71.24 938.155 74.28C936.475 77.24 935.635 80.8 935.635 84.96C935.635 89.04 936.475 92.6 938.155 95.64C939.835 98.68 942.075 101 944.875 102.6C947.755 104.2 950.995 105 954.595 105ZM1035.9 52.2C1041.02 52.2 1045.58 53.2 1049.58 55.2C1053.66 57.2 1056.86 60.28 1059.18 64.44C1061.5 68.52 1062.66 73.8 1062.66 80.28V117H1047.66V82.2C1047.66 76.52 1046.3 72.28 1043.58 69.48C1040.94 66.68 1037.22 65.28 1032.42 65.28C1028.9 65.28 1025.78 66 1023.06 67.44C1020.34 68.88 1018.22 71.04 1016.7 73.92C1015.26 76.72 1014.54 80.28 1014.54 84.6V117H999.538V52.92H1013.82V70.2L1011.3 64.92C1013.54 60.84 1016.78 57.72 1021.02 55.56C1025.34 53.32 1030.3 52.2 1035.9 52.2Z" fill="#053653"/>
</svg>
